<svg xmlns="http://www.w3.org/2000/svg" viewBox="0 0 126 53" width="126" height="53">
	<style>
		tspan { white-space:pre }
		.shp0 { fill: #fe3e57 } 
	</style>
	<g id="Blog_section">
		<g id="Geometric Shape">
			<path id="Shape 28" class="shp0" d="M122.52 51.26C122.52 50.3 123.3 49.52 124.26 49.52C125.22 49.52 126 50.3 126 51.26C126 52.22 125.22 53 124.26 53C123.3 53 122.52 52.22 122.52 51.26ZM108.81 51.26C108.81 50.3 109.59 49.52 110.55 49.52C111.51 49.52 112.29 50.3 112.29 51.26C112.29 52.22 111.51 53 110.55 53C109.59 53 108.81 52.22 108.81 51.26ZM95.32 51.26C95.32 50.3 96.1 49.52 97.06 49.52C98.02 49.52 98.8 50.3 98.8 51.26C98.8 52.22 98.02 53 97.06 53C96.1 53 95.32 52.22 95.32 51.26ZM81.61 51.26C81.61 50.3 82.39 49.52 83.35 49.52C84.31 49.52 85.09 50.3 85.09 51.26C85.09 52.22 84.31 53 83.35 53C82.39 53 81.61 52.22 81.61 51.26ZM68.11 51.26C68.11 50.3 68.89 49.52 69.85 49.52C70.82 49.52 71.6 50.3 71.6 51.26C71.6 52.22 70.82 53 69.85 53C68.89 53 68.11 52.22 68.11 51.26ZM54.4 51.26C54.4 50.3 55.18 49.52 56.14 49.52C57.11 49.52 57.89 50.3 57.89 51.26C57.89 52.22 57.11 53 56.14 53C55.18 53 54.4 52.22 54.4 51.26ZM40.91 51.26C40.91 50.3 41.69 49.52 42.65 49.52C43.61 49.52 44.39 50.3 44.39 51.26C44.39 52.22 43.61 53 42.65 53C41.69 53 40.91 52.22 40.91 51.26ZM27.2 51.26C27.2 50.3 27.98 49.52 28.94 49.52C29.9 49.52 30.68 50.3 30.68 51.26C30.68 52.22 29.9 53 28.94 53C27.98 53 27.2 52.22 27.2 51.26ZM13.71 51.26C13.71 50.3 14.49 49.52 15.45 49.52C16.41 49.52 17.19 50.3 17.19 51.26C17.19 52.22 16.41 53 15.45 53C14.49 53 13.71 52.22 13.71 51.26ZM0 51.26C0 50.3 0.78 49.52 1.74 49.52C2.7 49.52 3.48 50.3 3.48 51.26C3.48 52.22 2.7 53 1.74 53C0.78 53 0 52.22 0 51.26ZM122.52 34.75C122.52 33.79 123.3 33.02 124.26 33.02C125.22 33.02 126 33.79 126 34.75C126 35.71 125.22 36.49 124.26 36.49C123.3 36.49 122.52 35.71 122.52 34.75ZM108.81 34.75C108.81 33.79 109.59 33.02 110.55 33.02C111.51 33.02 112.29 33.79 112.29 34.75C112.29 35.71 111.51 36.49 110.55 36.49C109.59 36.49 108.81 35.71 108.81 34.75ZM95.32 34.75C95.32 33.79 96.1 33.02 97.06 33.02C98.02 33.02 98.8 33.79 98.8 34.75C98.8 35.71 98.02 36.49 97.06 36.49C96.1 36.49 95.32 35.71 95.32 34.75ZM81.61 34.75C81.61 33.79 82.39 33.02 83.35 33.02C84.31 33.02 85.09 33.79 85.09 34.75C85.09 35.71 84.31 36.49 83.35 36.49C82.39 36.49 81.61 35.71 81.61 34.75ZM68.11 34.75C68.11 33.79 68.89 33.02 69.85 33.02C70.82 33.02 71.6 33.79 71.6 34.75C71.6 35.71 70.82 36.49 69.85 36.49C68.89 36.49 68.11 35.71 68.11 34.75ZM54.4 34.75C54.4 33.79 55.18 33.02 56.14 33.02C57.11 33.02 57.89 33.79 57.89 34.75C57.89 35.71 57.11 36.49 56.14 36.49C55.18 36.49 54.4 35.71 54.4 34.75ZM40.91 34.75C40.91 33.79 41.69 33.02 42.65 33.02C43.61 33.02 44.39 33.79 44.39 34.75C44.39 35.71 43.61 36.49 42.65 36.49C41.69 36.49 40.91 35.71 40.91 34.75ZM27.2 34.75C27.2 33.79 27.98 33.02 28.94 33.02C29.9 33.02 30.68 33.79 30.68 34.75C30.68 35.71 29.9 36.49 28.94 36.49C27.98 36.49 27.2 35.71 27.2 34.75ZM13.71 34.75C13.71 33.79 14.49 33.02 15.45 33.02C16.41 33.02 17.19 33.79 17.19 34.75C17.19 35.71 16.41 36.49 15.45 36.49C14.49 36.49 13.71 35.71 13.71 34.75ZM0 34.75C0 33.79 0.78 33.02 1.74 33.02C2.7 33.02 3.48 33.79 3.48 34.75C3.48 35.71 2.7 36.49 1.74 36.49C0.78 36.49 0 35.71 0 34.75ZM122.52 18.25C122.52 17.29 123.3 16.51 124.26 16.51C125.22 16.51 126 17.29 126 18.25C126 19.2 125.22 19.98 124.26 19.98C123.3 19.98 122.52 19.2 122.52 18.25ZM108.81 18.25C108.81 17.29 109.59 16.51 110.55 16.51C111.51 16.51 112.29 17.29 112.29 18.25C112.29 19.2 111.51 19.98 110.55 19.98C109.59 19.98 108.81 19.2 108.81 18.25ZM95.32 18.25C95.32 17.29 96.1 16.51 97.06 16.51C98.02 16.51 98.8 17.29 98.8 18.25C98.8 19.2 98.02 19.98 97.06 19.98C96.1 19.98 95.32 19.2 95.32 18.25ZM81.61 18.25C81.61 17.29 82.39 16.51 83.35 16.51C84.31 16.51 85.09 17.29 85.09 18.25C85.09 19.2 84.31 19.98 83.35 19.98C82.39 19.98 81.61 19.2 81.61 18.25ZM68.11 18.25C68.11 17.29 68.89 16.51 69.85 16.51C70.82 16.51 71.6 17.29 71.6 18.25C71.6 19.2 70.82 19.98 69.85 19.98C68.89 19.98 68.11 19.2 68.11 18.25ZM54.4 18.25C54.4 17.29 55.18 16.51 56.14 16.51C57.11 16.51 57.89 17.29 57.89 18.25C57.89 19.2 57.11 19.98 56.14 19.98C55.18 19.98 54.4 19.2 54.4 18.25ZM40.91 18.25C40.91 17.29 41.69 16.51 42.65 16.51C43.61 16.51 44.39 17.29 44.39 18.25C44.39 19.2 43.61 19.98 42.65 19.98C41.69 19.98 40.91 19.2 40.91 18.25ZM27.2 18.25C27.2 17.29 27.98 16.51 28.94 16.51C29.9 16.51 30.68 17.29 30.68 18.25C30.68 19.2 29.9 19.98 28.94 19.98C27.98 19.98 27.2 19.2 27.2 18.25ZM13.71 18.25C13.71 17.29 14.49 16.51 15.45 16.51C16.41 16.51 17.19 17.29 17.19 18.25C17.19 19.2 16.41 19.98 15.45 19.98C14.49 19.98 13.71 19.2 13.71 18.25ZM0 18.25C0 17.29 0.78 16.51 1.74 16.51C2.7 16.51 3.48 17.29 3.48 18.25C3.48 19.2 2.7 19.98 1.74 19.98C0.78 19.98 0 19.2 0 18.25ZM122.52 1.74C122.52 0.78 123.3 0 124.26 0C125.22 0 126 0.78 126 1.74C126 2.7 125.22 3.48 124.26 3.48C123.3 3.48 122.52 2.7 122.52 1.74ZM108.81 1.74C108.81 0.78 109.59 0 110.55 0C111.51 0 112.29 0.78 112.29 1.74C112.29 2.7 111.51 3.48 110.55 3.48C109.59 3.48 108.81 2.7 108.81 1.74ZM95.32 1.74C95.32 0.78 96.1 0 97.06 0C98.02 0 98.8 0.78 98.8 1.74C98.8 2.7 98.02 3.48 97.06 3.48C96.1 3.48 95.32 2.7 95.32 1.74ZM81.61 1.74C81.61 0.78 82.39 0 83.35 0C84.31 0 85.09 0.78 85.09 1.74C85.09 2.7 84.31 3.48 83.35 3.48C82.39 3.48 81.61 2.7 81.61 1.74ZM68.11 1.74C68.11 0.78 68.89 0 69.85 0C70.82 0 71.6 0.78 71.6 1.74C71.6 2.7 70.82 3.48 69.85 3.48C68.89 3.48 68.11 2.7 68.11 1.74ZM54.4 1.74C54.4 0.78 55.18 0 56.14 0C57.11 0 57.89 0.78 57.89 1.74C57.89 2.7 57.11 3.48 56.14 3.48C55.18 3.48 54.4 2.7 54.4 1.74ZM40.91 1.74C40.91 0.78 41.69 0 42.65 0C43.61 0 44.39 0.78 44.39 1.74C44.39 2.7 43.61 3.48 42.65 3.48C41.69 3.48 40.91 2.7 40.91 1.74ZM27.2 1.74C27.2 0.78 27.98 0 28.94 0C29.9 0 30.68 0.78 30.68 1.74C30.68 2.7 29.9 3.48 28.94 3.48C27.98 3.48 27.2 2.7 27.2 1.74ZM13.71 1.74C13.71 0.78 14.49 0 15.45 0C16.41 0 17.19 0.78 17.19 1.74C17.19 2.7 16.41 3.48 15.45 3.48C14.49 3.48 13.71 2.7 13.71 1.74ZM0 1.74C0 0.78 0.78 0 1.74 0C2.7 0 3.48 0.78 3.48 1.74C3.48 2.7 2.7 3.48 1.74 3.48C0.78 3.48 0 2.7 0 1.74Z" />
		</g>
	</g>
</svg>