<svg xmlns="http://www.w3.org/2000/svg" viewBox="0 0 120 121" width="120" height="121">
	<style>
		tspan { white-space:pre }
		.shp0 { fill: #ffb534 } 
	</style>
	<g id="Features">
		<g id="Geometric shape">
			<path id="Shape_1" class="shp0" d="M59.99 120.99C59.61 120.99 59.24 120.99 58.87 120.98C58.54 120.98 58.29 120.71 58.29 120.38C58.3 120.05 58.56 119.81 58.89 119.8C60.24 119.83 61.61 119.8 62.96 119.74C63.28 119.71 63.56 119.97 63.57 120.3C63.59 120.62 63.34 120.9 63.02 120.92C62.01 120.97 61 120.99 59.99 120.99ZM54.78 120.77C54.76 120.77 54.75 120.77 54.73 120.76C53.36 120.64 51.97 120.47 50.61 120.26C50.29 120.21 50.07 119.91 50.12 119.58C50.17 119.26 50.47 119.04 50.79 119.09C52.13 119.3 53.48 119.47 54.83 119.59C55.15 119.61 55.39 119.9 55.36 120.23C55.34 120.53 55.08 120.77 54.78 120.77ZM67.08 120.57C66.78 120.57 66.53 120.35 66.49 120.05C66.46 119.73 66.69 119.43 67.01 119.39C68.35 119.23 69.7 119.02 71.03 118.77C71.35 118.71 71.65 118.92 71.71 119.24C71.77 119.56 71.56 119.87 71.24 119.93C69.89 120.19 68.52 120.4 67.15 120.57C67.12 120.57 67.1 120.57 67.08 120.57ZM46.67 119.48C46.63 119.48 46.58 119.48 46.54 119.47C45.2 119.16 43.85 118.8 42.53 118.39C42.22 118.3 42.05 117.97 42.14 117.66C42.23 117.34 42.56 117.17 42.87 117.26C44.16 117.66 45.49 118.01 46.8 118.32C47.12 118.39 47.32 118.71 47.24 119.02C47.18 119.3 46.94 119.48 46.67 119.48ZM75.14 119.03C74.88 119.03 74.64 118.85 74.57 118.59C74.49 118.27 74.68 117.95 74.99 117.87C76.29 117.52 77.6 117.12 78.88 116.69C79.19 116.58 79.52 116.75 79.63 117.06C79.73 117.37 79.57 117.7 79.26 117.81C77.96 118.25 76.62 118.66 75.29 119.01C75.24 119.02 75.19 119.03 75.14 119.03ZM38.81 117.08C38.74 117.08 38.67 117.07 38.6 117.04C37.31 116.54 36.03 116 34.78 115.41C34.48 115.27 34.35 114.92 34.49 114.63C34.63 114.33 34.97 114.2 35.27 114.34C36.5 114.91 37.76 115.45 39.02 115.93C39.32 116.05 39.47 116.39 39.36 116.7C39.27 116.93 39.05 117.08 38.81 117.08ZM82.91 116.38C82.68 116.38 82.46 116.24 82.37 116.01C82.24 115.71 82.38 115.36 82.68 115.24C83.92 114.71 85.17 114.14 86.37 113.53C86.66 113.38 87.01 113.5 87.16 113.79C87.31 114.08 87.19 114.44 86.9 114.58C85.67 115.21 84.4 115.79 83.13 116.33C83.06 116.36 82.98 116.38 82.91 116.38ZM31.36 113.59C31.26 113.59 31.16 113.57 31.07 113.52C29.87 112.85 28.67 112.13 27.51 111.38C27.24 111.2 27.16 110.83 27.33 110.56C27.51 110.28 27.87 110.2 28.15 110.38C29.28 111.12 30.46 111.83 31.64 112.48C31.92 112.64 32.03 113 31.87 113.29C31.76 113.48 31.56 113.59 31.36 113.59ZM90.24 112.66C90.04 112.66 89.84 112.56 89.73 112.37C89.57 112.09 89.66 111.73 89.94 111.56C91.1 110.87 92.25 110.13 93.36 109.35C93.63 109.17 93.99 109.24 94.18 109.5C94.36 109.77 94.29 110.14 94.03 110.33C92.89 111.12 91.72 111.87 90.53 112.58C90.44 112.64 90.34 112.66 90.24 112.66ZM24.45 109.11C24.33 109.11 24.21 109.07 24.1 108.99C23 108.16 21.91 107.28 20.87 106.37C20.62 106.16 20.59 105.79 20.8 105.54C21.02 105.29 21.39 105.26 21.63 105.47C22.65 106.36 23.72 107.22 24.81 108.04C25.07 108.24 25.12 108.61 24.92 108.87C24.81 109.02 24.63 109.11 24.45 109.11ZM96.99 107.97C96.82 107.97 96.65 107.89 96.53 107.74C96.33 107.49 96.37 107.12 96.62 106.91C97.68 106.07 98.72 105.17 99.71 104.25C99.95 104.03 100.32 104.05 100.54 104.29C100.76 104.53 100.75 104.9 100.51 105.12C99.49 106.06 98.43 106.98 97.35 107.84C97.25 107.92 97.12 107.97 96.99 107.97ZM18.23 103.71C18.08 103.71 17.93 103.65 17.82 103.54C16.84 102.56 15.88 101.54 14.97 100.5C14.75 100.25 14.78 99.88 15.02 99.66C15.26 99.45 15.63 99.47 15.85 99.72C16.74 100.74 17.68 101.74 18.64 102.7C18.87 102.93 18.87 103.3 18.65 103.53C18.53 103.65 18.38 103.71 18.23 103.71ZM103.04 102.38C102.9 102.38 102.75 102.32 102.64 102.22C102.4 101.99 102.39 101.62 102.62 101.38C103.55 100.39 104.46 99.36 105.32 98.31C105.53 98.06 105.9 98.03 106.14 98.23C106.39 98.44 106.43 98.82 106.22 99.07C105.34 100.14 104.42 101.19 103.47 102.19C103.35 102.32 103.2 102.38 103.04 102.38ZM12.8 97.5C12.62 97.5 12.45 97.42 12.33 97.27C11.5 96.17 10.69 95.03 9.93 93.87C9.75 93.6 9.82 93.23 10.09 93.05C10.36 92.87 10.73 92.94 10.9 93.21C11.65 94.35 12.45 95.47 13.27 96.55C13.46 96.81 13.41 97.18 13.16 97.38C13.05 97.46 12.93 97.5 12.8 97.5ZM108.28 96C108.16 96 108.04 95.97 107.94 95.89C107.68 95.7 107.61 95.33 107.8 95.07C108.6 93.96 109.36 92.81 110.06 91.65C110.23 91.38 110.59 91.29 110.87 91.46C111.15 91.63 111.23 92 111.06 92.28C110.34 93.45 109.56 94.62 108.76 95.76C108.64 95.92 108.46 96 108.28 96ZM8.27 90.61C8.07 90.61 7.87 90.5 7.76 90.31C7.08 89.1 6.43 87.86 5.84 86.61C5.7 86.31 5.82 85.96 6.12 85.82C6.41 85.67 6.76 85.8 6.9 86.09C7.48 87.32 8.11 88.54 8.78 89.72C8.94 90.01 8.84 90.37 8.56 90.53C8.47 90.58 8.37 90.61 8.27 90.61ZM112.6 88.96C112.51 88.96 112.42 88.94 112.33 88.89C112.04 88.74 111.93 88.38 112.08 88.09C112.71 86.88 113.31 85.64 113.85 84.4C113.98 84.1 114.33 83.96 114.63 84.1C114.92 84.23 115.06 84.58 114.93 84.88C114.37 86.14 113.76 87.41 113.12 88.64C113.02 88.85 112.81 88.96 112.6 88.96ZM4.73 83.15C4.49 83.15 4.27 83.01 4.18 82.78C3.67 81.49 3.21 80.17 2.79 78.84C2.69 78.53 2.86 78.2 3.17 78.1C3.48 78 3.81 78.17 3.91 78.48C4.32 79.78 4.78 81.08 5.27 82.34C5.39 82.65 5.24 82.99 4.94 83.11C4.87 83.14 4.8 83.15 4.73 83.15ZM115.92 81.38C115.85 81.38 115.78 81.37 115.72 81.35C115.41 81.23 115.25 80.9 115.36 80.59C115.82 79.31 116.24 78 116.61 76.69C116.69 76.37 117.02 76.19 117.33 76.28C117.64 76.37 117.82 76.69 117.74 77.01C117.36 78.35 116.93 79.69 116.47 80.99C116.38 81.23 116.16 81.38 115.92 81.38ZM2.24 75.27C1.97 75.27 1.73 75.09 1.67 74.81C1.34 73.47 1.06 72.09 0.83 70.72C0.78 70.4 0.99 70.09 1.31 70.04C1.63 69.98 1.93 70.2 1.99 70.52C2.22 71.87 2.49 73.22 2.81 74.54C2.89 74.85 2.69 75.17 2.38 75.25C2.33 75.26 2.28 75.27 2.24 75.27ZM118.15 73.42C118.11 73.42 118.07 73.41 118.03 73.41C117.71 73.34 117.51 73.03 117.58 72.7C117.85 71.37 118.09 70.01 118.27 68.67C118.32 68.34 118.6 68.12 118.93 68.16C119.25 68.21 119.48 68.5 119.43 68.83C119.25 70.2 119.01 71.59 118.73 72.95C118.67 73.23 118.42 73.42 118.15 73.42ZM0.86 67.11C0.56 67.11 0.31 66.88 0.28 66.58C0.14 65.19 0.05 63.79 0.01 62.41C0 62.08 0.25 61.81 0.58 61.8C0.9 61.78 1.17 62.04 1.18 62.37C1.22 63.73 1.31 65.1 1.45 66.46C1.48 66.78 1.24 67.07 0.92 67.11C0.9 67.11 0.88 67.11 0.86 67.11ZM119.27 65.22C119.26 65.22 119.25 65.22 119.23 65.22C118.91 65.2 118.67 64.92 118.69 64.59C118.78 63.23 118.83 61.86 118.83 60.49C118.83 59.25 118.79 57.99 118.71 56.74C118.69 56.42 118.94 56.13 119.26 56.11C119.59 56.09 119.86 56.34 119.88 56.67C119.96 57.94 120 59.22 120 60.49C120 61.88 119.95 63.29 119.86 64.67C119.84 64.98 119.58 65.22 119.27 65.22ZM0.61 58.84C0.6 58.84 0.59 58.84 0.58 58.84C0.26 58.83 0.01 58.55 0.02 58.23C0.07 56.83 0.17 55.43 0.31 54.06C0.35 53.73 0.64 53.5 0.96 53.53C1.28 53.56 1.52 53.85 1.48 54.18C1.34 55.53 1.24 56.91 1.19 58.27C1.18 58.59 0.92 58.84 0.61 58.84ZM118.9 53.18C118.61 53.18 118.36 52.96 118.32 52.66C118.14 51.31 117.92 49.95 117.65 48.62C117.58 48.3 117.79 47.99 118.11 47.92C118.43 47.86 118.73 48.06 118.8 48.38C119.07 49.74 119.3 51.13 119.48 52.51C119.52 52.83 119.3 53.13 118.98 53.17C118.95 53.18 118.92 53.18 118.9 53.18ZM1.47 50.61C1.44 50.61 1.4 50.61 1.37 50.6C1.05 50.54 0.84 50.24 0.89 49.92C1.13 48.55 1.42 47.17 1.75 45.83C1.83 45.51 2.15 45.31 2.46 45.4C2.78 45.47 2.97 45.8 2.89 46.11C2.57 47.43 2.28 48.78 2.05 50.12C2 50.41 1.75 50.61 1.47 50.61ZM117.26 45.07C117.01 45.07 116.77 44.9 116.7 44.63C116.34 43.33 115.93 42.01 115.48 40.73C115.37 40.42 115.53 40.08 115.84 39.97C116.14 39.86 116.48 40.02 116.59 40.33C117.05 41.64 117.46 42.98 117.83 44.32C117.92 44.63 117.73 44.96 117.42 45.05C117.37 45.06 117.32 45.07 117.26 45.07ZM3.45 42.58C3.39 42.58 3.33 42.57 3.27 42.55C2.96 42.45 2.8 42.12 2.9 41.81C3.32 40.49 3.8 39.16 4.31 37.87C4.43 37.57 4.78 37.42 5.08 37.54C5.38 37.67 5.52 38.01 5.4 38.31C4.9 39.58 4.43 40.88 4.01 42.17C3.93 42.42 3.7 42.58 3.45 42.58ZM114.53 37.27C114.31 37.27 114.09 37.14 113.99 36.92C113.46 35.67 112.87 34.43 112.25 33.22C112.1 32.93 112.21 32.57 112.5 32.42C112.79 32.27 113.14 32.38 113.29 32.67C113.93 33.91 114.53 35.18 115.07 36.44C115.2 36.74 115.06 37.09 114.77 37.22C114.69 37.26 114.61 37.27 114.53 37.27ZM6.53 34.9C6.44 34.9 6.35 34.88 6.27 34.84C5.98 34.69 5.86 34.34 6 34.05C6.6 32.8 7.26 31.55 7.94 30.35C8.11 30.07 8.46 29.97 8.75 30.13C9.03 30.3 9.12 30.66 8.96 30.94C8.29 32.12 7.65 33.34 7.06 34.56C6.95 34.78 6.74 34.9 6.53 34.9ZM110.76 29.93C110.56 29.93 110.37 29.83 110.26 29.65C109.55 28.49 108.8 27.34 108.02 26.23C107.83 25.96 107.9 25.59 108.16 25.4C108.43 25.21 108.79 25.28 108.98 25.54C109.78 26.68 110.54 27.85 111.26 29.03C111.43 29.31 111.34 29.68 111.06 29.85C110.97 29.9 110.86 29.93 110.76 29.93ZM10.63 27.72C10.51 27.72 10.4 27.69 10.3 27.62C10.03 27.44 9.96 27.07 10.14 26.8C10.91 25.65 11.72 24.5 12.57 23.41C12.77 23.15 13.14 23.1 13.39 23.3C13.65 23.51 13.7 23.88 13.5 24.14C12.67 25.21 11.87 26.33 11.11 27.46C11 27.63 10.81 27.72 10.63 27.72ZM106.01 23.18C105.84 23.18 105.67 23.11 105.56 22.97C104.7 21.91 103.8 20.87 102.88 19.88C102.66 19.65 102.67 19.27 102.9 19.05C103.14 18.82 103.51 18.84 103.73 19.07C104.67 20.08 105.59 21.14 106.47 22.22C106.67 22.47 106.64 22.84 106.38 23.05C106.28 23.14 106.14 23.18 106.01 23.18ZM15.66 21.18C15.52 21.18 15.38 21.13 15.27 21.03C15.03 20.81 15.01 20.44 15.22 20.2C16.14 19.16 17.11 18.15 18.09 17.18C18.33 16.95 18.7 16.95 18.92 17.19C19.15 17.42 19.14 17.79 18.91 18.02C17.94 18.97 17 19.97 16.1 20.98C15.98 21.11 15.82 21.18 15.66 21.18ZM100.39 17.15C100.25 17.15 100.11 17.1 99.99 16.99C99 16.07 97.97 15.16 96.92 14.31C96.66 14.11 96.63 13.73 96.83 13.48C97.03 13.22 97.4 13.18 97.65 13.39C98.72 14.26 99.78 15.18 100.79 16.13C101.03 16.35 101.04 16.72 100.82 16.96C100.71 17.09 100.55 17.15 100.39 17.15ZM21.54 15.4C21.37 15.4 21.21 15.33 21.09 15.2C20.88 14.95 20.91 14.57 21.16 14.36C22.21 13.46 23.3 12.59 24.41 11.77C24.67 11.57 25.04 11.63 25.23 11.89C25.42 12.15 25.37 12.52 25.11 12.72C24.02 13.53 22.95 14.38 21.92 15.26C21.81 15.36 21.67 15.4 21.54 15.4ZM94 11.95C93.88 11.95 93.77 11.92 93.66 11.85C92.56 11.07 91.41 10.32 90.25 9.61C89.97 9.45 89.88 9.08 90.05 8.8C90.22 8.52 90.58 8.43 90.86 8.6C92.04 9.32 93.21 10.08 94.34 10.88C94.6 11.06 94.67 11.43 94.48 11.7C94.37 11.86 94.19 11.95 94 11.95ZM28.14 10.49C27.95 10.49 27.76 10.4 27.65 10.22C27.47 9.95 27.56 9.58 27.83 9.4C28.99 8.66 30.19 7.95 31.4 7.28C31.69 7.13 32.04 7.24 32.2 7.52C32.35 7.81 32.25 8.17 31.96 8.32C30.78 8.97 29.6 9.67 28.46 10.4C28.36 10.46 28.25 10.49 28.14 10.49ZM86.96 7.69C86.87 7.69 86.78 7.67 86.69 7.62C85.49 7 84.25 6.42 83.01 5.89C82.71 5.76 82.57 5.41 82.7 5.11C82.82 4.81 83.17 4.67 83.47 4.8C84.74 5.34 86 5.94 87.23 6.57C87.52 6.72 87.63 7.07 87.48 7.37C87.38 7.57 87.17 7.69 86.96 7.69ZM35.35 6.55C35.13 6.55 34.92 6.42 34.82 6.2C34.68 5.91 34.81 5.56 35.11 5.42C36.36 4.84 37.65 4.31 38.93 3.82C39.24 3.7 39.58 3.86 39.69 4.17C39.8 4.47 39.65 4.81 39.35 4.93C38.08 5.4 36.82 5.93 35.6 6.5C35.52 6.53 35.43 6.55 35.35 6.55ZM79.4 4.44C79.34 4.44 79.27 4.43 79.21 4.41C77.93 3.97 76.63 3.56 75.32 3.21C75.01 3.12 74.82 2.8 74.91 2.48C74.99 2.17 75.32 1.98 75.63 2.07C76.96 2.43 78.29 2.84 79.59 3.29C79.9 3.4 80.06 3.74 79.95 4.05C79.87 4.29 79.64 4.44 79.4 4.44ZM43.03 3.65C42.78 3.65 42.55 3.48 42.47 3.23C42.38 2.91 42.56 2.58 42.87 2.49C44.19 2.09 45.54 1.74 46.88 1.44C47.2 1.37 47.51 1.57 47.58 1.89C47.65 2.21 47.45 2.52 47.14 2.59C45.82 2.89 44.5 3.24 43.2 3.62C43.14 3.64 43.09 3.65 43.03 3.65ZM71.48 2.29C71.44 2.29 71.4 2.29 71.36 2.28C70.04 2.02 68.69 1.8 67.35 1.63C67.03 1.59 66.8 1.3 66.84 0.97C66.88 0.65 67.17 0.42 67.49 0.46C68.86 0.63 70.24 0.85 71.59 1.12C71.91 1.18 72.11 1.49 72.05 1.81C72 2.1 71.75 2.29 71.48 2.29ZM51.04 1.85C50.76 1.85 50.51 1.64 50.46 1.35C50.42 1.02 50.64 0.72 50.96 0.67C52.32 0.47 53.7 0.3 55.07 0.19C55.4 0.17 55.68 0.41 55.71 0.73C55.73 1.06 55.49 1.35 55.17 1.37C53.82 1.48 52.46 1.64 51.13 1.84C51.1 1.85 51.07 1.85 51.04 1.85ZM63.33 1.27C63.32 1.27 63.31 1.27 63.3 1.27C61.95 1.19 60.58 1.16 59.23 1.18C59.23 1.18 59.23 1.18 59.23 1.18C58.9 1.18 58.64 0.92 58.64 0.6C58.63 0.27 58.89 0 59.22 0C60.6 -0.02 61.99 0.01 63.36 0.09C63.69 0.1 63.93 0.38 63.92 0.71C63.9 1.02 63.64 1.27 63.33 1.27ZM59.99 108.77C58.73 108.77 57.46 108.72 56.22 108.63C55.9 108.6 55.65 108.32 55.68 107.99C55.7 107.66 55.97 107.42 56.31 107.45C57.53 107.54 58.76 107.59 59.99 107.59L60.36 107.59C60.36 107.59 60.37 107.59 60.37 107.59C60.69 107.59 60.95 107.85 60.95 108.18C60.96 108.5 60.7 108.77 60.37 108.77L59.99 108.77ZM64.47 108.56C64.17 108.56 63.91 108.33 63.88 108.03C63.85 107.7 64.09 107.41 64.41 107.38C65.76 107.25 67.11 107.07 68.43 106.82C68.75 106.77 69.05 106.98 69.11 107.3C69.17 107.62 68.96 107.93 68.64 107.99C67.29 108.24 65.9 108.43 64.52 108.56C64.5 108.56 64.49 108.56 64.47 108.56ZM52.19 108.13C52.16 108.13 52.13 108.12 52.09 108.12C50.73 107.89 49.36 107.6 48.03 107.25C47.71 107.17 47.52 106.85 47.6 106.53C47.68 106.22 48.01 106.03 48.32 106.11C49.62 106.45 50.95 106.73 52.29 106.95C52.6 107.01 52.82 107.31 52.77 107.63C52.72 107.92 52.47 108.13 52.19 108.13ZM72.54 107.08C72.28 107.08 72.04 106.9 71.97 106.64C71.89 106.33 72.07 106 72.38 105.91C73.68 105.55 74.98 105.13 76.24 104.66C76.54 104.55 76.88 104.7 77 105.01C77.11 105.32 76.95 105.66 76.65 105.77C75.36 106.25 74.03 106.69 72.69 107.06C72.64 107.07 72.59 107.08 72.54 107.08ZM44.24 106.07C44.18 106.07 44.11 106.06 44.05 106.03C42.75 105.57 41.45 105.04 40.19 104.47C39.89 104.33 39.76 103.98 39.9 103.68C40.03 103.39 40.38 103.25 40.68 103.39C41.9 103.95 43.17 104.47 44.44 104.92C44.74 105.03 44.9 105.36 44.8 105.67C44.71 105.92 44.49 106.07 44.24 106.07ZM80.23 104.2C80.01 104.2 79.8 104.07 79.7 103.86C79.56 103.57 79.68 103.21 79.98 103.07C81.19 102.49 82.4 101.85 83.56 101.16C83.84 101 84.2 101.09 84.36 101.37C84.53 101.66 84.43 102.02 84.15 102.18C82.96 102.89 81.72 103.55 80.48 104.14C80.4 104.18 80.31 104.2 80.23 104.2ZM36.77 102.64C36.67 102.64 36.57 102.62 36.48 102.57C35.28 101.88 34.09 101.14 32.95 100.35C32.69 100.16 32.62 99.8 32.8 99.53C32.98 99.26 33.35 99.19 33.62 99.37C34.73 100.14 35.89 100.87 37.06 101.54C37.34 101.7 37.44 102.06 37.28 102.34C37.18 102.53 36.98 102.64 36.77 102.64ZM87.31 100.02C87.12 100.02 86.94 99.93 86.83 99.77C86.64 99.5 86.7 99.13 86.97 98.95C88.07 98.16 89.14 97.32 90.17 96.44C90.42 96.23 90.79 96.26 91 96.51C91.21 96.76 91.18 97.13 90.93 97.34C89.88 98.24 88.77 99.11 87.65 99.91C87.54 99.99 87.42 100.02 87.31 100.02ZM30 97.97C29.87 97.97 29.74 97.92 29.63 97.83C28.56 96.95 27.52 96.01 26.53 95.04C26.3 94.81 26.3 94.43 26.52 94.2C26.75 93.97 27.12 93.96 27.35 94.19C28.31 95.14 29.33 96.06 30.37 96.92C30.62 97.13 30.66 97.5 30.46 97.75C30.34 97.89 30.17 97.97 30 97.97ZM93.57 94.67C93.42 94.67 93.27 94.62 93.15 94.5C92.92 94.27 92.92 93.9 93.15 93.66C94.1 92.7 95.02 91.68 95.88 90.64C96.09 90.39 96.46 90.35 96.71 90.57C96.96 90.77 96.99 91.15 96.78 91.4C95.9 92.47 94.95 93.51 93.98 94.5C93.87 94.61 93.72 94.67 93.57 94.67ZM24.13 92.19C23.97 92.19 23.8 92.12 23.69 91.98C22.79 90.93 21.92 89.82 21.11 88.69C20.92 88.43 20.98 88.06 21.24 87.86C21.51 87.67 21.87 87.73 22.06 88C22.85 89.1 23.7 90.18 24.58 91.21C24.79 91.46 24.76 91.83 24.51 92.04C24.4 92.14 24.27 92.19 24.13 92.19ZM98.82 88.32C98.71 88.32 98.59 88.29 98.49 88.21C98.22 88.03 98.16 87.66 98.34 87.39C99.11 86.28 99.84 85.11 100.51 83.94C100.68 83.65 101.03 83.56 101.32 83.72C101.6 83.88 101.69 84.24 101.53 84.53C100.84 85.73 100.09 86.92 99.3 88.07C99.19 88.23 99.01 88.32 98.82 88.32ZM19.34 85.48C19.14 85.48 18.94 85.37 18.83 85.19C18.12 83.99 17.46 82.75 16.86 81.5C16.72 81.21 16.84 80.85 17.13 80.71C17.42 80.57 17.77 80.69 17.92 80.98C18.5 82.21 19.15 83.42 19.84 84.58C20 84.86 19.91 85.23 19.63 85.39C19.54 85.45 19.44 85.48 19.34 85.48ZM102.91 81.15C102.83 81.15 102.75 81.13 102.67 81.09C102.37 80.95 102.24 80.6 102.38 80.31C102.95 79.08 103.47 77.8 103.93 76.52C104.04 76.22 104.37 76.06 104.68 76.17C104.98 76.28 105.14 76.62 105.03 76.93C104.56 78.24 104.03 79.54 103.45 80.8C103.35 81.02 103.13 81.15 102.91 81.15ZM15.76 78.03C15.52 78.03 15.3 77.89 15.21 77.65C14.72 76.35 14.28 75.01 13.91 73.67C13.82 73.36 14 73.03 14.31 72.94C14.62 72.86 14.95 73.04 15.04 73.35C15.4 74.66 15.83 75.96 16.31 77.23C16.43 77.54 16.27 77.88 15.97 77.99C15.9 78.02 15.83 78.03 15.76 78.03ZM105.71 73.37C105.66 73.37 105.61 73.36 105.55 73.35C105.24 73.26 105.06 72.94 105.14 72.62C105.48 71.32 105.78 69.97 106.01 68.63C106.06 68.31 106.36 68.1 106.69 68.15C107.01 68.21 107.22 68.51 107.16 68.83C106.93 70.21 106.63 71.59 106.27 72.93C106.2 73.19 105.97 73.37 105.71 73.37ZM13.53 70.07C13.25 70.07 13 69.88 12.95 69.59C12.69 68.23 12.49 66.84 12.35 65.45C12.32 65.12 12.55 64.83 12.87 64.8C13.19 64.76 13.48 65 13.52 65.33C13.66 66.68 13.85 68.04 14.1 69.37C14.16 69.69 13.95 70 13.64 70.06C13.6 70.07 13.56 70.07 13.53 70.07ZM107.12 65.22C107.1 65.22 107.08 65.22 107.06 65.22C106.74 65.19 106.5 64.9 106.53 64.58C106.64 63.23 106.7 61.86 106.7 60.49C106.7 59.99 106.69 59.49 106.68 58.99C106.67 58.66 106.92 58.39 107.25 58.38C107.58 58.36 107.84 58.62 107.85 58.95C107.87 59.46 107.88 59.98 107.88 60.49C107.88 61.89 107.82 63.3 107.7 64.68C107.67 64.99 107.42 65.22 107.12 65.22ZM12.69 61.85C12.37 61.85 12.11 61.59 12.11 61.27C12.1 61.01 12.1 60.75 12.1 60.49C12.1 59.36 12.14 58.21 12.22 57.08C12.24 56.75 12.52 56.51 12.84 56.53C13.17 56.55 13.41 56.83 13.39 57.16C13.31 58.26 13.27 59.39 13.27 60.49C13.27 60.74 13.28 61 13.28 61.25C13.29 61.57 13.03 61.84 12.7 61.85C12.7 61.85 12.7 61.85 12.69 61.85ZM106.96 55.43C106.67 55.43 106.41 55.21 106.38 54.91C106.22 53.56 106 52.2 105.73 50.88C105.66 50.56 105.87 50.24 106.18 50.18C106.5 50.11 106.81 50.31 106.88 50.63C107.16 51.99 107.38 53.38 107.54 54.77C107.58 55.1 107.35 55.39 107.03 55.43C107.01 55.43 106.98 55.43 106.96 55.43ZM13.27 53.6C13.24 53.6 13.21 53.6 13.17 53.59C12.85 53.54 12.64 53.24 12.69 52.91C12.9 51.54 13.18 50.16 13.51 48.81C13.59 48.49 13.91 48.3 14.22 48.37C14.54 48.45 14.73 48.77 14.65 49.09C14.33 50.41 14.06 51.76 13.85 53.1C13.8 53.39 13.55 53.6 13.27 53.6ZM105.29 47.33C105.04 47.33 104.81 47.17 104.73 46.91C104.34 45.61 103.89 44.31 103.4 43.05C103.27 42.75 103.42 42.41 103.72 42.28C104.02 42.16 104.36 42.31 104.49 42.61C105 43.91 105.46 45.24 105.86 46.57C105.95 46.88 105.77 47.22 105.46 47.31C105.41 47.33 105.35 47.33 105.29 47.33ZM15.25 45.57C15.18 45.57 15.12 45.56 15.06 45.54C14.75 45.43 14.59 45.1 14.69 44.79C15.14 43.47 15.65 42.16 16.21 40.89C16.35 40.59 16.69 40.45 16.99 40.59C17.29 40.72 17.42 41.07 17.29 41.37C16.74 42.61 16.24 43.89 15.8 45.17C15.72 45.42 15.49 45.57 15.25 45.57ZM102.26 39.65C102.04 39.65 101.83 39.53 101.73 39.33C101.13 38.12 100.46 36.92 99.75 35.76C99.58 35.48 99.67 35.12 99.94 34.95C100.22 34.78 100.58 34.86 100.75 35.14C101.48 36.32 102.16 37.55 102.78 38.79C102.93 39.09 102.81 39.44 102.52 39.59C102.43 39.63 102.34 39.65 102.26 39.65ZM18.58 38.01C18.49 38.01 18.39 37.99 18.3 37.94C18.01 37.78 17.91 37.42 18.07 37.13C18.74 35.92 19.47 34.71 20.24 33.56C20.42 33.29 20.79 33.21 21.05 33.4C21.32 33.58 21.39 33.95 21.21 34.22C20.46 35.35 19.75 36.52 19.1 37.71C18.99 37.9 18.79 38.01 18.58 38.01ZM97.94 32.62C97.76 32.62 97.59 32.54 97.47 32.38C96.67 31.29 95.81 30.23 94.91 29.21C94.69 28.97 94.72 28.59 94.96 28.37C95.2 28.16 95.57 28.18 95.79 28.42C96.71 29.47 97.59 30.56 98.41 31.67C98.61 31.94 98.55 32.31 98.29 32.5C98.19 32.58 98.06 32.62 97.94 32.62ZM23.17 31.15C23.04 31.15 22.91 31.1 22.8 31.02C22.55 30.81 22.51 30.44 22.71 30.18C23.58 29.1 24.5 28.05 25.46 27.04C25.68 26.8 26.05 26.8 26.29 27.02C26.52 27.25 26.53 27.62 26.3 27.86C25.37 28.84 24.47 29.87 23.62 30.93C23.51 31.07 23.34 31.15 23.17 31.15ZM92.49 26.44C92.34 26.44 92.2 26.38 92.09 26.27C91.11 25.34 90.08 24.44 89.02 23.59C88.77 23.39 88.73 23.02 88.93 22.76C89.13 22.51 89.5 22.46 89.75 22.67C90.83 23.53 91.89 24.46 92.89 25.41C93.13 25.64 93.14 26.01 92.92 26.25C92.8 26.37 92.65 26.44 92.49 26.44ZM28.85 25.18C28.69 25.18 28.53 25.11 28.41 24.98C28.2 24.74 28.22 24.36 28.47 24.15C29.5 23.23 30.6 22.35 31.71 21.53C31.97 21.33 32.34 21.39 32.53 21.65C32.72 21.92 32.66 22.29 32.4 22.48C31.32 23.28 30.25 24.14 29.24 25.04C29.13 25.14 28.99 25.18 28.85 25.18ZM86.06 21.29C85.95 21.29 85.84 21.26 85.74 21.19C84.62 20.44 83.45 19.73 82.26 19.08C81.98 18.93 81.87 18.57 82.03 18.28C82.18 18 82.54 17.89 82.82 18.05C84.04 18.71 85.24 19.44 86.39 20.2C86.66 20.39 86.73 20.75 86.55 21.03C86.44 21.2 86.25 21.29 86.06 21.29ZM35.47 20.29C35.27 20.29 35.08 20.19 34.97 20.01C34.8 19.73 34.89 19.37 35.17 19.2C36.35 18.47 37.57 17.8 38.81 17.18C39.1 17.03 39.45 17.15 39.59 17.45C39.74 17.74 39.62 18.1 39.33 18.24C38.12 18.84 36.93 19.5 35.78 20.21C35.68 20.27 35.57 20.29 35.47 20.29ZM78.85 17.34C78.77 17.34 78.69 17.32 78.62 17.29C77.38 16.75 76.11 16.25 74.83 15.82C74.52 15.72 74.36 15.38 74.46 15.07C74.56 14.76 74.9 14.6 75.2 14.7C76.52 15.14 77.82 15.65 79.09 16.2C79.38 16.34 79.52 16.68 79.39 16.98C79.29 17.21 79.08 17.34 78.85 17.34ZM42.82 16.63C42.59 16.63 42.37 16.49 42.28 16.26C42.16 15.95 42.31 15.61 42.61 15.49C43.9 14.98 45.22 14.53 46.55 14.14C46.86 14.05 47.18 14.23 47.28 14.54C47.37 14.86 47.19 15.19 46.88 15.28C45.59 15.66 44.29 16.1 43.04 16.59C42.97 16.62 42.9 16.63 42.82 16.63ZM71.07 14.71C71.03 14.71 70.98 14.71 70.93 14.7C69.63 14.38 68.29 14.12 66.95 13.92C66.63 13.87 66.41 13.57 66.46 13.24C66.51 12.92 66.81 12.7 67.13 12.75C68.49 12.95 69.87 13.22 71.21 13.55C71.52 13.62 71.72 13.94 71.64 14.26C71.58 14.53 71.34 14.71 71.07 14.71ZM50.7 14.32C50.42 14.32 50.18 14.12 50.12 13.84C50.06 13.52 50.27 13.21 50.58 13.14C51.94 12.87 53.32 12.66 54.69 12.5C55.01 12.47 55.31 12.7 55.34 13.03C55.38 13.35 55.14 13.65 54.82 13.68C53.48 13.83 52.13 14.04 50.81 14.3C50.77 14.31 50.74 14.32 50.7 14.32ZM62.96 13.49C62.95 13.49 62.93 13.49 62.92 13.49C61.58 13.4 60.21 13.38 58.87 13.41C58.55 13.41 58.27 13.16 58.27 12.83C58.26 12.51 58.52 12.23 58.84 12.23C60.22 12.19 61.62 12.22 62.99 12.31C63.32 12.33 63.56 12.61 63.54 12.93C63.52 13.25 63.27 13.49 62.96 13.49ZM58.22 96.81C58.21 96.81 58.2 96.81 58.19 96.81C56.8 96.74 55.41 96.59 54.04 96.36C53.73 96.31 53.51 96 53.56 95.68C53.61 95.36 53.91 95.14 54.24 95.19C55.56 95.42 56.91 95.56 58.25 95.63C58.57 95.64 58.82 95.92 58.81 96.25C58.79 96.56 58.53 96.81 58.22 96.81ZM62.33 96.78C62.02 96.78 61.76 96.54 61.74 96.22C61.72 95.9 61.97 95.62 62.29 95.6C63.63 95.51 64.98 95.34 66.3 95.1C66.62 95.04 66.92 95.25 66.98 95.57C67.04 95.89 66.82 96.2 66.51 96.26C65.15 96.51 63.75 96.68 62.37 96.78C62.35 96.78 62.34 96.78 62.33 96.78ZM50.14 95.46C50.08 95.46 50.03 95.45 49.97 95.43C48.64 95.05 47.32 94.57 46.04 94.03C45.74 93.91 45.6 93.56 45.72 93.26C45.85 92.96 46.19 92.81 46.49 92.94C47.73 93.47 49.01 93.92 50.3 94.3C50.61 94.39 50.79 94.71 50.7 95.03C50.63 95.29 50.39 95.46 50.14 95.46ZM70.39 95.29C70.14 95.29 69.91 95.13 69.83 94.87C69.73 94.56 69.91 94.23 70.22 94.13C71.5 93.74 72.77 93.26 74 92.72C74.3 92.59 74.64 92.72 74.78 93.02C74.91 93.32 74.77 93.67 74.47 93.8C73.2 94.36 71.89 94.86 70.56 95.27C70.5 95.28 70.45 95.29 70.39 95.29ZM42.58 92.26C42.48 92.26 42.38 92.23 42.29 92.18C41.08 91.49 39.9 90.73 38.78 89.9C38.51 89.71 38.46 89.34 38.65 89.08C38.84 88.81 39.21 88.75 39.47 88.95C40.55 89.74 41.7 90.49 42.86 91.15C43.15 91.31 43.25 91.67 43.09 91.96C42.98 92.15 42.78 92.26 42.58 92.26ZM77.89 91.97C77.69 91.97 77.5 91.87 77.39 91.68C77.22 91.4 77.32 91.03 77.6 90.87C78.75 90.19 79.88 89.43 80.96 88.61C81.22 88.42 81.58 88.47 81.78 88.73C81.97 88.99 81.92 89.36 81.66 89.56C80.55 90.4 79.38 91.19 78.19 91.89C78.1 91.95 77.99 91.97 77.89 91.97ZM35.95 87.39C35.81 87.39 35.66 87.34 35.55 87.23C34.53 86.29 33.55 85.27 32.65 84.21C32.44 83.96 32.47 83.59 32.71 83.38C32.96 83.16 33.33 83.19 33.54 83.44C34.41 84.46 35.36 85.45 36.35 86.36C36.58 86.59 36.6 86.96 36.38 87.2C36.26 87.33 36.11 87.39 35.95 87.39ZM84.44 87C84.29 87 84.13 86.94 84.01 86.82C83.79 86.58 83.8 86.21 84.04 85.98C85.01 85.05 85.94 84.05 86.8 83.01C87 82.76 87.37 82.73 87.62 82.94C87.87 83.15 87.91 83.52 87.7 83.77C86.81 84.84 85.85 85.88 84.84 86.84C84.73 86.95 84.59 87 84.44 87ZM30.6 81.13C30.41 81.13 30.23 81.04 30.11 80.87C29.34 79.71 28.62 78.5 27.98 77.26C27.83 76.97 27.94 76.61 28.23 76.46C28.52 76.31 28.87 76.42 29.02 76.71C29.64 77.91 30.33 79.08 31.09 80.21C31.27 80.48 31.2 80.85 30.93 81.03C30.83 81.1 30.71 81.13 30.6 81.13ZM89.69 80.66C89.58 80.66 89.47 80.62 89.37 80.56C89.1 80.38 89.02 80.01 89.2 79.74C89.94 78.61 90.61 77.42 91.21 76.21C91.36 75.92 91.71 75.8 92 75.95C92.29 76.09 92.41 76.45 92.26 76.74C91.64 77.99 90.94 79.22 90.18 80.39C90.07 80.56 89.88 80.66 89.69 80.66ZM26.82 73.8C26.58 73.8 26.36 73.66 26.27 73.42C25.78 72.12 25.35 70.77 25.01 69.41C24.93 69.09 25.12 68.77 25.44 68.69C25.75 68.61 26.07 68.8 26.15 69.12C26.48 70.43 26.89 71.74 27.37 73C27.48 73.3 27.33 73.65 27.03 73.76C26.96 73.79 26.89 73.8 26.82 73.8ZM93.36 73.26C93.29 73.26 93.22 73.25 93.16 73.23C92.85 73.12 92.7 72.78 92.81 72.47C93.26 71.2 93.65 69.88 93.96 68.57C94.03 68.25 94.35 68.05 94.66 68.13C94.98 68.2 95.17 68.52 95.1 68.84C94.78 70.2 94.38 71.56 93.91 72.87C93.82 73.11 93.6 73.26 93.36 73.26ZM24.81 65.79C24.52 65.79 24.27 65.57 24.23 65.27C24.05 63.89 23.95 62.48 23.93 61.08C23.92 60.75 24.18 60.48 24.5 60.48C24.51 60.48 24.51 60.48 24.51 60.48C24.83 60.48 25.1 60.74 25.1 61.06C25.12 62.42 25.22 63.78 25.39 65.12C25.44 65.44 25.21 65.74 24.89 65.78C24.86 65.79 24.84 65.79 24.81 65.79ZM95.23 65.22C95.21 65.22 95.19 65.21 95.17 65.21C94.85 65.18 94.61 64.88 94.65 64.56C94.8 63.21 94.88 61.85 94.88 60.49C94.88 60.11 94.87 59.73 94.86 59.36C94.85 59.03 95.11 58.76 95.43 58.75C95.74 58.73 96.03 58.99 96.04 59.32C96.05 59.71 96.06 60.1 96.05 60.49C96.05 61.89 95.97 63.31 95.82 64.69C95.78 64.99 95.53 65.22 95.23 65.22ZM24.68 57.53C24.66 57.53 24.64 57.53 24.62 57.52C24.3 57.49 24.07 57.2 24.1 56.88C24.23 55.48 24.45 54.08 24.75 52.72C24.82 52.4 25.13 52.2 25.45 52.27C25.76 52.34 25.96 52.65 25.9 52.97C25.61 54.29 25.4 55.64 25.27 56.99C25.24 57.3 24.98 57.53 24.68 57.53ZM95.08 55.81C94.8 55.81 94.55 55.6 94.5 55.3C94.31 53.96 94.03 52.62 93.68 51.32C93.6 51 93.78 50.68 94.1 50.59C94.41 50.51 94.73 50.69 94.82 51.01C95.18 52.36 95.46 53.75 95.66 55.13C95.71 55.45 95.49 55.75 95.17 55.8C95.14 55.8 95.11 55.81 95.08 55.81ZM26.43 49.45C26.36 49.45 26.3 49.44 26.24 49.42C25.93 49.31 25.77 48.98 25.87 48.67C26.32 47.35 26.86 46.04 27.46 44.77C27.6 44.48 27.95 44.35 28.24 44.5C28.53 44.64 28.66 44.99 28.52 45.29C27.93 46.51 27.42 47.78 26.98 49.05C26.9 49.3 26.67 49.45 26.43 49.45ZM92.95 47.83C92.72 47.83 92.5 47.69 92.41 47.46C91.91 46.2 91.33 44.96 90.69 43.77C90.54 43.49 90.65 43.13 90.93 42.97C91.22 42.81 91.57 42.92 91.73 43.21C92.39 44.44 92.98 45.72 93.5 47.02C93.62 47.32 93.47 47.67 93.17 47.79C93.1 47.82 93.02 47.83 92.95 47.83ZM29.98 42C29.87 42 29.76 41.97 29.66 41.91C29.39 41.73 29.31 41.37 29.48 41.09C30.22 39.91 31.04 38.76 31.91 37.67C32.11 37.42 32.48 37.38 32.74 37.58C32.99 37.79 33.03 38.16 32.82 38.41C31.98 39.47 31.19 40.58 30.47 41.72C30.36 41.9 30.17 42 29.98 42ZM89.05 40.56C88.87 40.56 88.69 40.48 88.57 40.31C87.8 39.2 86.96 38.13 86.07 37.12C85.85 36.88 85.87 36.5 86.11 36.29C86.36 36.07 86.73 36.09 86.94 36.33C87.86 37.38 88.74 38.49 89.53 39.63C89.72 39.9 89.65 40.27 89.39 40.46C89.29 40.53 89.17 40.56 89.05 40.56ZM35.12 35.57C34.97 35.57 34.82 35.51 34.71 35.39C34.48 35.16 34.48 34.78 34.71 34.55C35.7 33.57 36.76 32.64 37.85 31.78C38.11 31.58 38.48 31.63 38.68 31.89C38.88 32.14 38.83 32.52 38.57 32.72C37.52 33.55 36.49 34.45 35.54 35.4C35.42 35.51 35.27 35.57 35.12 35.57ZM83.6 34.39C83.47 34.39 83.33 34.34 83.21 34.24C82.21 33.34 81.15 32.49 80.05 31.71C79.79 31.52 79.72 31.15 79.91 30.88C80.1 30.62 80.46 30.55 80.73 30.74C81.86 31.54 82.96 32.43 84 33.36C84.24 33.57 84.26 33.95 84.04 34.19C83.93 34.32 83.77 34.39 83.6 34.39ZM41.59 30.49C41.39 30.49 41.2 30.39 41.09 30.21C40.92 29.93 41.01 29.56 41.29 29.4C42.47 28.67 43.71 28.01 44.97 27.42C45.27 27.29 45.62 27.42 45.75 27.72C45.89 28.01 45.76 28.36 45.46 28.5C44.24 29.06 43.04 29.7 41.9 30.41C41.8 30.47 41.7 30.49 41.59 30.49ZM76.9 29.63C76.81 29.63 76.71 29.61 76.62 29.56C75.44 28.91 74.21 28.33 72.97 27.83C72.66 27.71 72.52 27.36 72.64 27.06C72.76 26.75 73.1 26.61 73.4 26.73C74.69 27.25 75.96 27.85 77.18 28.52C77.47 28.68 77.57 29.04 77.42 29.32C77.31 29.52 77.11 29.63 76.9 29.63ZM49.04 27.05C48.79 27.05 48.56 26.89 48.48 26.64C48.38 26.33 48.55 26 48.86 25.9C50.18 25.47 51.54 25.11 52.9 24.83C53.22 24.77 53.53 24.98 53.59 25.3C53.65 25.62 53.45 25.93 53.13 26C51.81 26.26 50.5 26.61 49.22 27.02C49.16 27.04 49.1 27.05 49.04 27.05ZM69.29 26.56C69.24 26.56 69.19 26.55 69.14 26.54C67.84 26.18 66.51 25.9 65.18 25.7C64.86 25.65 64.64 25.35 64.69 25.03C64.74 24.71 65.04 24.48 65.36 24.53C66.73 24.74 68.11 25.03 69.44 25.39C69.76 25.48 69.94 25.8 69.86 26.12C69.78 26.38 69.55 26.56 69.29 26.56ZM57.08 25.43C56.78 25.43 56.52 25.2 56.49 24.89C56.47 24.56 56.71 24.28 57.03 24.25C58.01 24.17 59 24.13 59.98 24.13C60.4 24.12 60.8 24.14 61.2 24.15C61.53 24.16 61.78 24.44 61.77 24.76C61.76 25.09 61.49 25.35 61.16 25.33C60.77 25.32 60.39 25.33 59.98 25.32C59.03 25.32 58.07 25.35 57.13 25.43C57.11 25.43 57.09 25.43 57.08 25.43Z" />
		</g>
	</g>
</svg>