<svg xmlns="http://www.w3.org/2000/svg" viewBox="0 0 65 52" width="65" height="52">
	<style>
		tspan { white-space:pre }
		.shp0 { fill: #fe3e57 } 
	</style>
	<g id="Features">
		<g id="Geometric shape">
			<path id="Shape_2" class="shp0" d="M1.75 0C2.72 0 3.5 0.78 3.5 1.73C3.5 2.69 2.72 3.47 1.75 3.47C0.78 3.47 0 2.69 0 1.73C0 0.78 0.78 0 1.75 0ZM14.05 0C15.02 0 15.81 0.78 15.81 1.73C15.81 2.69 15.02 3.47 14.05 3.47C13.07 3.47 12.28 2.69 12.28 1.73C12.28 0.78 13.07 0 14.05 0ZM26.34 0C27.31 0 28.09 0.78 28.09 1.73C28.09 2.69 27.31 3.47 26.34 3.47C25.38 3.47 24.59 2.69 24.59 1.73C24.59 0.78 25.38 0 26.34 0ZM38.66 0C39.62 0 40.41 0.78 40.41 1.73C40.41 2.69 39.62 3.47 38.66 3.47C37.69 3.47 36.91 2.69 36.91 1.73C36.91 0.78 37.69 0 38.66 0ZM50.95 0C51.93 0 52.72 0.78 52.72 1.73C52.72 2.69 51.93 3.47 50.95 3.47C49.98 3.47 49.19 2.69 49.19 1.73C49.19 0.78 49.98 0 50.95 0ZM63.25 0C64.22 0 65 0.78 65 1.73C65 2.69 64.22 3.47 63.25 3.47C62.28 3.47 61.5 2.69 61.5 1.73C61.5 0.78 62.28 0 63.25 0ZM1.75 12.12C2.72 12.12 3.5 12.9 3.5 13.86C3.5 14.82 2.72 15.59 1.75 15.59C0.78 15.59 0 14.82 0 13.86C0 12.9 0.78 12.12 1.75 12.12ZM14.05 12.12C15.02 12.12 15.81 12.9 15.81 13.86C15.81 14.82 15.02 15.59 14.05 15.59C13.07 15.59 12.28 14.82 12.28 13.86C12.28 12.9 13.07 12.12 14.05 12.12ZM26.34 12.12C27.31 12.12 28.09 12.9 28.09 13.86C28.09 14.82 27.31 15.59 26.34 15.59C25.38 15.59 24.59 14.82 24.59 13.86C24.59 12.9 25.38 12.12 26.34 12.12ZM38.66 12.12C39.62 12.12 40.41 12.9 40.41 13.86C40.41 14.82 39.62 15.59 38.66 15.59C37.69 15.59 36.91 14.82 36.91 13.86C36.91 12.9 37.69 12.12 38.66 12.12ZM50.95 12.12C51.93 12.12 52.72 12.9 52.72 13.86C52.72 14.82 51.93 15.59 50.95 15.59C49.98 15.59 49.19 14.82 49.19 13.86C49.19 12.9 49.98 12.12 50.95 12.12ZM63.25 12.12C64.22 12.12 65 12.9 65 13.86C65 14.82 64.22 15.59 63.25 15.59C62.28 15.59 61.5 14.82 61.5 13.86C61.5 12.9 62.28 12.12 63.25 12.12ZM1.75 24.28C2.72 24.28 3.5 25.05 3.5 26C3.5 26.95 2.72 27.72 1.75 27.72C0.78 27.72 0 26.95 0 26C0 25.05 0.78 24.28 1.75 24.28ZM14.05 24.28C15.02 24.28 15.81 25.05 15.81 26C15.81 26.95 15.02 27.72 14.05 27.72C13.07 27.72 12.28 26.95 12.28 26C12.28 25.05 13.07 24.28 14.05 24.28ZM26.34 24.28C27.31 24.28 28.09 25.05 28.09 26C28.09 26.95 27.31 27.72 26.34 27.72C25.38 27.72 24.59 26.95 24.59 26C24.59 25.05 25.38 24.28 26.34 24.28ZM38.66 24.28C39.62 24.28 40.41 25.05 40.41 26C40.41 26.95 39.62 27.72 38.66 27.72C37.69 27.72 36.91 26.95 36.91 26C36.91 25.05 37.69 24.28 38.66 24.28ZM50.95 24.28C51.93 24.28 52.72 25.05 52.72 26C52.72 26.95 51.93 27.72 50.95 27.72C49.98 27.72 49.19 26.95 49.19 26C49.19 25.05 49.98 24.28 50.95 24.28ZM63.25 24.28C64.22 24.28 65 25.05 65 26C65 26.95 64.22 27.72 63.25 27.72C62.28 27.72 61.5 26.95 61.5 26C61.5 25.05 62.28 24.28 63.25 24.28ZM1.75 36.41C2.72 36.41 3.5 37.18 3.5 38.14C3.5 39.1 2.72 39.87 1.75 39.87C0.78 39.87 0 39.1 0 38.14C0 37.18 0.78 36.41 1.75 36.41ZM14.05 36.41C15.02 36.41 15.81 37.18 15.81 38.14C15.81 39.1 15.02 39.87 14.05 39.87C13.07 39.87 12.28 39.1 12.28 38.14C12.28 37.18 13.07 36.41 14.05 36.41ZM26.34 36.41C27.31 36.41 28.09 37.18 28.09 38.14C28.09 39.1 27.31 39.87 26.34 39.87C25.38 39.87 24.59 39.1 24.59 38.14C24.59 37.18 25.38 36.41 26.34 36.41ZM38.66 36.41C39.62 36.41 40.41 37.18 40.41 38.14C40.41 39.1 39.62 39.87 38.66 39.87C37.69 39.87 36.91 39.1 36.91 38.14C36.91 37.18 37.69 36.41 38.66 36.41ZM50.95 36.41C51.93 36.41 52.72 37.18 52.72 38.14C52.72 39.1 51.93 39.87 50.95 39.87C49.98 39.87 49.19 39.1 49.19 38.14C49.19 37.18 49.98 36.41 50.95 36.41ZM63.25 36.41C64.22 36.41 65 37.18 65 38.14C65 39.1 64.22 39.87 63.25 39.87C62.28 39.87 61.5 39.1 61.5 38.14C61.5 37.18 62.28 36.41 63.25 36.41ZM1.75 48.53C2.72 48.53 3.5 49.31 3.5 50.27C3.5 51.22 2.72 52 1.75 52C0.78 52 0 51.22 0 50.27C0 49.31 0.78 48.53 1.75 48.53ZM14.05 48.53C15.02 48.53 15.81 49.31 15.81 50.27C15.81 51.22 15.02 52 14.05 52C13.07 52 12.28 51.22 12.28 50.27C12.28 49.31 13.07 48.53 14.05 48.53ZM26.34 48.53C27.31 48.53 28.09 49.31 28.09 50.27C28.09 51.22 27.31 52 26.34 52C25.38 52 24.59 51.22 24.59 50.27C24.59 49.31 25.38 48.53 26.34 48.53ZM38.66 48.53C39.62 48.53 40.41 49.31 40.41 50.27C40.41 51.22 39.62 52 38.66 52C37.69 52 36.91 51.22 36.91 50.27C36.91 49.31 37.69 48.53 38.66 48.53ZM50.95 48.53C51.93 48.53 52.72 49.31 52.72 50.27C52.72 51.22 51.93 52 50.95 52C49.98 52 49.19 51.22 49.19 50.27C49.19 49.31 49.98 48.53 50.95 48.53ZM63.25 48.53C64.22 48.53 65 49.31 65 50.27C65 51.22 64.22 52 63.25 52C62.28 52 61.5 51.22 61.5 50.27C61.5 49.31 62.28 48.53 63.25 48.53Z" />
		</g>
	</g>
</svg>