<svg xmlns="http://www.w3.org/2000/svg" viewBox="0 0 1923 745" width="1923" height="745">
	<style>
		tspan { white-space:pre }
		.shp0 { fill: #ededed } 
	</style>
	<g id="About shop">
		<g id="Bg">
			<path id="Pattern" class="shp0" d="M59.05 48.18L57.38 46.6L59.19 47.99L64.38 41.28L94.87 12.46L125.5 41.44L129.76 46.97L178.37 0.98L180.58 0.98L130.69 48.18L131.44 49.14L94.87 14.54L58.3 49.14L59.05 48.18ZM9.16 0.98L11.36 0.98L57.97 45.07L57.03 46.27L9.16 0.98ZM94.87 81.83L21.43 151.31L20.5 150.1L94.87 79.74L169.24 150.1L168.31 151.31L94.87 81.83ZM80.59 227.81L94.87 214.31L109.14 227.81L108.21 229.02L94.87 216.39L81.53 229.02L80.59 227.81ZM50.55 188.96L94.87 147.02L139.19 188.96L138.26 190.16L94.87 149.11L51.48 190.16L50.55 188.96ZM94.87 182.75L66.5 209.59L65.57 208.38L94.87 180.66L124.17 208.38L123.24 209.59L94.87 182.75ZM94.87 48.19L6.41 131.88L5.48 130.67L94.87 46.1L184.26 130.67L183.33 131.88L94.87 48.19ZM116.75 25.64L142.82 0.98L145.02 0.98L117.68 26.85L116.75 25.64ZM101.72 6.21L107.26 0.98L109.47 0.98L102.66 7.42L101.72 6.21ZM191.11 58.3L162.75 85.13L161.82 83.92L191.02 56.29L191.04 56.31L191.12 56.23L220.39 83.92L219.46 85.13L191.11 58.3ZM116.75 274.56L191.11 204.21L265.46 274.56L264.53 275.77L191.11 206.3L117.68 275.77L116.75 274.56ZM101.72 255.13L191.11 170.57L280.49 255.13L279.56 256.34L191.11 172.66L102.66 256.34L101.72 255.13ZM0 93.24L0 91.15L12.9 103.35L11.96 104.56L0 93.24ZM0 25.96L0 23.87L42.94 64.5L42.01 65.7L0 25.96ZM0 59.6L0 57.51L27.92 83.92L26.99 85.13L0 59.6ZM80.27 0.98L82.48 0.98L88.01 6.21L87.08 7.42L80.27 0.98ZM44.71 0.98L46.92 0.98L72.99 25.64L72.06 26.85L44.71 0.98ZM0 173.95L0 171.86L88.01 255.13L87.08 256.34L0 173.95ZM0 207.59L0 205.5L72.99 274.56L72.06 275.77L0 207.59ZM251.52 48.18L249.85 46.59L251.66 47.99L256.85 41.28L287.34 12.46L317.97 41.44L322.23 46.97L370.85 0.98L373.06 0.98L323.17 48.18L323.91 49.14L287.34 14.54L250.77 49.14L251.52 48.18ZM201.63 0.98L203.84 0.98L250.44 45.07L249.51 46.27L201.63 0.98ZM287.34 81.83L213.91 151.31L212.97 150.1L287.34 79.74L361.71 150.1L360.78 151.31L287.34 81.83ZM273.07 227.81L287.34 214.31L301.62 227.81L300.68 229.02L287.34 216.39L274 229.02L273.07 227.81ZM287.34 149.11L243.95 190.16L243.02 188.96L287.34 147.02L331.67 188.96L330.73 190.16L287.34 149.11ZM258.04 208.38L287.34 180.66L316.64 208.38L315.71 209.59L287.34 182.75L258.98 209.59L258.04 208.38ZM287.34 48.19L198.88 131.88L197.95 130.67L287.34 46.1L376.74 130.67L375.8 131.88L287.34 48.19ZM309.22 25.64L335.29 0.98L337.5 0.98L310.15 26.85L309.22 25.64ZM294.2 6.21L299.73 0.98L301.94 0.98L295.13 7.42L294.2 6.21ZM383.58 58.3L355.23 85.13L354.29 83.92L383.55 56.24L383.63 56.31L383.65 56.28L412.87 83.92L411.93 85.13L383.58 58.3ZM309.22 274.56L383.58 204.21L457.94 274.56L457.01 275.77L383.58 206.3L310.15 275.77L309.22 274.56ZM294.2 255.13L383.58 170.57L472.96 255.13L472.03 256.34L383.58 172.66L295.13 256.34L294.2 255.13ZM176.84 103.35L191.11 89.86L205.37 103.35L204.44 104.56L191.11 91.95L177.78 104.56L176.84 103.35ZM146.8 64.5L191.02 22.65L191.04 22.67L191.12 22.59L235.41 64.5L234.48 65.7L191.11 24.66L147.73 65.7L146.8 64.5ZM272.75 0.98L274.95 0.98L280.49 6.21L279.56 7.42L272.75 0.98ZM237.19 0.98L239.39 0.98L265.46 25.64L264.53 26.85L237.19 0.98ZM443.99 48.18L442.32 46.59L444.13 47.99L449.33 41.28L479.82 12.46L510.45 41.44L514.71 46.97L563.32 0.98L565.53 0.98L515.64 48.18L516.39 49.14L479.82 14.54L443.24 49.15L443.99 48.18ZM394.1 0.98L396.31 0.98L442.91 45.07L441.98 46.27L394.1 0.98ZM479.82 81.83L406.38 151.31L405.45 150.1L479.82 79.74L554.19 150.1L553.25 151.31L479.82 81.83ZM479.82 216.39L466.47 229.02L465.54 227.81L479.82 214.31L494.09 227.81L493.16 229.02L479.82 216.39ZM479.82 149.11L436.42 190.16L435.49 188.96L479.82 147.02L524.14 188.96L523.21 190.16L479.82 149.11ZM450.52 208.38L479.82 180.66L509.11 208.38L508.18 209.59L479.82 182.75L451.45 209.59L450.52 208.38ZM390.42 130.67L479.82 46.1L569.21 130.67L568.28 131.88L479.82 48.19L391.36 131.88L390.42 130.67ZM501.69 25.64L527.76 0.98L529.97 0.98L502.63 26.85L501.69 25.64ZM486.67 6.21L492.2 0.98L494.41 0.98L487.6 7.42L486.67 6.21ZM576.05 58.3L547.7 85.13L546.77 83.92L576.05 56.22L605.34 83.92L604.41 85.13L576.05 58.3ZM501.69 274.56L576.05 204.21L650.41 274.56L649.48 275.77L576.05 206.3L502.63 275.77L501.69 274.56ZM576.05 172.66L487.6 256.34L486.67 255.13L576.05 170.57L665.43 255.13L664.5 256.34L576.05 172.66ZM383.58 91.95L370.25 104.56L369.32 103.35L383.58 89.86L397.84 103.35L396.91 104.56L383.58 91.95ZM339.27 64.5L383.55 22.6L383.63 22.67L383.65 22.64L427.89 64.5L426.96 65.7L383.58 24.66L340.2 65.7L339.27 64.5ZM465.22 0.98L467.43 0.98L472.96 6.21L472.03 7.42L465.22 0.98ZM429.66 0.98L431.87 0.98L457.94 25.64L457.01 26.85L429.66 0.98ZM636.47 48.18L634.79 46.59L636.61 47.99L641.8 41.28L672.29 12.46L702.92 41.44L707.18 46.97L755.8 0.98L758 0.98L708.11 48.18L708.86 49.14L672.29 14.54L635.71 49.15L636.47 48.18ZM586.58 0.98L588.79 0.98L635.39 45.07L634.45 46.27L586.58 0.98ZM672.29 81.83L598.85 151.31L597.92 150.1L672.29 79.74L746.66 150.1L745.73 151.31L672.29 81.83ZM672.29 216.39L658.95 229.02L658.02 227.81L672.29 214.31L686.56 227.81L685.63 229.02L672.29 216.39ZM627.97 188.96L672.29 147.02L716.61 188.96L715.68 190.16L672.29 149.11L628.9 190.16L627.97 188.96ZM642.99 208.38L672.29 180.66L701.59 208.38L700.65 209.59L672.29 182.75L643.92 209.59L642.99 208.38ZM672.29 48.19L583.83 131.88L582.9 130.67L672.29 46.1L761.68 130.67L760.75 131.88L672.29 48.19ZM694.17 25.64L720.24 0.98L722.44 0.98L695.1 26.85L694.17 25.64ZM679.15 6.21L684.68 0.98L686.89 0.98L680.08 7.42L679.15 6.21ZM768.53 58.3L740.17 85.13L739.24 83.92L768.53 56.22L797.81 83.92L796.88 85.13L768.53 58.3ZM694.17 274.56L768.52 204.21L842.88 274.56L841.95 275.77L768.53 206.3L695.1 275.77L694.17 274.56ZM768.53 172.66L680.08 256.34L679.15 255.13L768.52 170.57L857.91 255.13L856.98 256.34L768.53 172.66ZM561.79 103.35L576.05 89.86L590.31 103.35L589.38 104.56L576.05 91.95L562.72 104.56L561.79 103.35ZM531.74 64.5L576.05 22.57L620.36 64.5L619.43 65.7L576.05 24.66L532.67 65.7L531.74 64.5ZM657.69 0.98L659.9 0.98L665.43 6.21L664.5 7.42L657.69 0.98ZM622.13 0.98L624.34 0.98L650.41 25.64L649.48 26.85L622.13 0.98ZM828.94 48.18L827.26 46.59L829.08 47.99L834.27 41.28L864.76 12.46L895.4 41.44L899.66 46.97L948.27 0.98L950.48 0.98L900.59 48.18L901.34 49.14L864.76 14.54L828.19 49.15L828.94 48.18ZM779.05 0.98L781.26 0.98L827.86 45.07L826.93 46.27L779.05 0.98ZM864.76 81.83L791.32 151.31L790.39 150.1L864.76 79.74L939.13 150.1L938.2 151.31L864.76 81.83ZM864.76 216.39L851.42 229.02L850.49 227.81L864.76 214.31L879.04 227.81L878.11 229.02L864.76 216.39ZM864.76 149.11L821.37 190.16L820.44 188.96L864.76 147.02L909.09 188.96L908.15 190.16L864.76 149.11ZM835.47 208.38L864.76 180.66L894.06 208.38L893.13 209.59L864.76 182.75L836.4 209.59L835.47 208.38ZM864.76 48.19L776.3 131.88L775.37 130.67L864.76 46.1L954.16 130.67L953.22 131.88L864.76 48.19ZM886.64 25.64L912.71 0.98L914.92 0.98L887.57 26.85L886.64 25.64ZM871.62 6.21L877.15 0.98L879.36 0.98L872.55 7.42L871.62 6.21ZM961 58.3L932.64 85.13L931.72 83.92L961 56.22L990.28 83.92L989.35 85.13L961 58.3ZM886.64 274.56L961 204.21L1035.36 274.56L1034.42 275.77L961 206.3L887.57 275.77L886.64 274.56ZM961 172.66L872.55 256.34L871.62 255.13L961 170.57L1050.38 255.13L1049.45 256.34L961 172.66ZM754.26 103.35L768.53 89.86L782.79 103.35L781.86 104.56L768.53 91.95L755.2 104.56L754.26 103.35ZM724.22 64.5L768.52 22.57L812.84 64.5L811.9 65.7L768.53 24.66L725.15 65.7L724.22 64.5ZM850.17 0.98L852.37 0.98L857.91 6.21L856.98 7.42L850.17 0.98ZM814.61 0.98L816.81 0.98L842.88 25.64L841.95 26.84L814.61 0.98ZM1021.41 48.18L1019.74 46.59L1021.56 47.99L1026.74 41.28L1057.24 12.46L1087.87 41.44L1092.13 46.97L1140.74 0.98L1142.95 0.98L1093.06 48.18L1093.81 49.14L1057.24 14.54L1020.66 49.15L1021.41 48.18ZM971.52 0.98L973.73 0.98L1020.33 45.07L1019.4 46.27L971.52 0.98ZM982.87 150.1L1057.24 79.74L1131.6 150.1L1130.67 151.31L1057.24 81.83L983.8 151.31L982.87 150.1ZM1057.24 216.39L1043.89 229.02L1042.96 227.81L1057.24 214.31L1071.51 227.81L1070.58 229.02L1057.24 216.39ZM1012.91 188.96L1057.24 147.02L1101.56 188.96L1100.63 190.16L1057.24 149.11L1013.85 190.16L1012.91 188.96ZM1027.94 208.38L1057.24 180.66L1086.53 208.38L1085.6 209.59L1057.24 182.75L1028.87 209.59L1027.94 208.38ZM1057.24 48.19L968.78 131.88L967.84 130.67L1057.24 46.1L1146.63 130.67L1145.7 131.88L1057.24 48.19ZM1079.12 25.64L1105.18 0.98L1107.39 0.98L1080.05 26.85L1079.12 25.64ZM1064.09 6.21L1069.63 0.98L1071.83 0.98L1065.02 7.42L1064.09 6.21ZM1153.47 58.3L1125.12 85.13L1124.19 83.92L1153.47 56.22L1182.76 83.92L1181.83 85.13L1153.47 58.3ZM1079.12 274.56L1153.47 204.21L1227.83 274.56L1226.9 275.77L1153.47 206.3L1080.05 275.77L1079.12 274.56ZM1153.47 172.66L1065.02 256.34L1064.09 255.13L1153.47 170.57L1242.86 255.13L1241.92 256.34L1153.47 172.66ZM946.74 103.35L961 89.86L975.26 103.35L974.33 104.56L961 91.95L947.67 104.56L946.74 103.35ZM916.69 64.5L961 22.57L1005.31 64.5L1004.38 65.7L961 24.66L917.62 65.7L916.69 64.5ZM1042.64 0.98L1044.85 0.98L1050.38 6.21L1049.45 7.42L1042.64 0.98ZM1007.08 0.98L1009.29 0.98L1035.36 25.64L1034.42 26.85L1007.08 0.98ZM1213.89 48.18L1164 0.98L1166.2 0.98L1214.82 46.97L1219.22 41.28L1249.71 12.46L1280.34 41.44L1284.6 46.97L1333.22 0.98L1335.42 0.98L1285.53 48.18L1286.27 49.13L1249.71 14.54L1213.14 49.15L1213.89 48.18ZM1175.34 150.1L1249.71 79.74L1324.08 150.1L1323.15 151.31L1249.71 81.83L1176.27 151.31L1175.34 150.1ZM1235.44 227.81L1249.71 214.31L1263.98 227.81L1263.05 229.02L1249.71 216.39L1236.37 229.02L1235.44 227.81ZM1249.71 149.11L1206.32 190.16L1205.39 188.96L1249.71 147.02L1294.03 188.96L1293.1 190.16L1249.71 149.11ZM1220.41 208.38L1249.71 180.66L1279.01 208.38L1278.08 209.59L1249.71 182.75L1221.34 209.59L1220.41 208.38ZM1249.71 48.19L1161.25 131.88L1160.32 130.67L1249.71 46.1L1339.1 130.67L1338.17 131.88L1249.71 48.19ZM1271.59 25.64L1297.66 0.98L1299.86 0.98L1272.52 26.85L1271.59 25.64ZM1256.56 6.21L1262.1 0.98L1264.31 0.98L1257.5 7.42L1256.56 6.21ZM1345.95 58.3L1317.59 85.13L1316.66 83.92L1345.86 56.29L1345.94 56.38L1346.02 56.28L1375.23 83.92L1374.3 85.13L1345.95 58.3ZM1271.59 274.56L1345.92 204.23L1345.94 204.25L1345.96 204.23L1420.3 274.56L1419.37 275.77L1345.95 206.3L1272.52 275.77L1271.59 274.56ZM1345.95 172.66L1257.5 256.34L1256.56 255.13L1345.92 170.59L1345.94 170.61L1345.96 170.58L1435.33 255.13L1434.4 256.34L1345.95 172.66ZM1139.21 103.35L1153.48 89.86L1167.74 103.35L1166.8 104.56L1153.47 91.95L1140.14 104.56L1139.21 103.35ZM1153.47 24.66L1110.1 65.7L1109.16 64.5L1153.47 22.57L1197.78 64.5L1196.85 65.7L1153.47 24.66ZM1235.11 0.98L1237.32 0.98L1242.86 6.21L1241.92 7.42L1235.11 0.98ZM1199.56 0.98L1201.76 0.98L1227.83 25.64L1226.9 26.85L1199.56 0.98ZM1442.18 14.54L1405.62 49.14L1406.36 48.18L1356.47 0.98L1358.68 0.98L1407.29 46.97L1411.69 41.28L1442.18 12.46L1472.82 41.44L1477.07 46.97L1525.69 0.98L1527.9 0.98L1478.01 48.18L1478.75 49.14L1442.18 14.54ZM1442.18 81.83L1368.75 151.31L1367.81 150.1L1442.18 79.74L1516.55 150.1L1515.62 151.31L1442.18 81.83ZM1442.18 216.39L1428.84 229.02L1427.91 227.81L1442.18 214.31L1456.46 227.81L1455.52 229.02L1442.18 216.39ZM1442.18 149.11L1398.79 190.16L1397.86 188.96L1442.18 147.02L1486.5 188.96L1485.57 190.16L1442.18 149.11ZM1442.18 182.75L1413.82 209.59L1412.89 208.38L1442.18 180.66L1471.48 208.38L1470.55 209.59L1442.18 182.75ZM1442.18 48.19L1353.72 131.88L1352.79 130.67L1442.18 46.1L1531.58 130.67L1530.64 131.88L1442.18 48.19ZM1464.06 25.64L1490.13 0.98L1492.34 0.98L1464.99 26.84L1464.06 25.64ZM1449.04 6.21L1454.57 0.98L1456.78 0.98L1449.97 7.42L1449.04 6.21ZM1538.42 58.3L1510.07 85.13L1509.13 83.92L1538.34 56.29L1538.41 56.38L1538.49 56.28L1567.71 83.92L1566.77 85.13L1538.42 58.3ZM1538.42 206.3L1464.99 275.77L1464.06 274.56L1538.4 204.23L1538.41 204.25L1538.43 204.23L1612.78 274.56L1611.85 275.77L1538.42 206.3ZM1538.42 172.66L1449.97 256.34L1449.04 255.13L1538.4 170.59L1538.41 170.61L1538.43 170.58L1627.8 255.13L1626.87 256.34L1538.42 172.66ZM1331.69 103.35L1345.92 89.88L1345.94 89.9L1345.96 89.87L1360.21 103.35L1359.28 104.56L1345.95 91.95L1332.62 104.56L1331.69 103.35ZM1345.95 24.66L1302.57 65.7L1301.64 64.5L1345.86 22.65L1345.94 22.74L1346.02 22.64L1390.26 64.5L1389.32 65.7L1345.95 24.66ZM1427.59 0.98L1429.79 0.98L1435.33 6.21L1434.4 7.42L1427.59 0.98ZM1392.03 0.98L1394.24 0.98L1420.3 25.64L1419.37 26.85L1392.03 0.98ZM94.87 330.75L21.43 400.23L20.5 399.02L94.87 328.66L169.24 399.02L168.31 400.23L94.87 330.75ZM80.59 476.73L94.87 463.23L109.14 476.73L108.21 477.94L94.87 465.31L81.53 477.94L80.59 476.73ZM50.55 437.88L94.87 395.94L139.19 437.88L138.26 439.08L94.87 398.03L51.48 439.08L50.55 437.88ZM94.87 431.67L66.5 458.51L65.57 457.3L94.87 429.58L124.17 457.3L123.24 458.51L94.87 431.67ZM94.87 297.11L6.41 380.8L5.48 379.59L94.87 295.02L184.26 379.59L183.33 380.8L94.87 297.11ZM191.11 340.87L177.78 353.48L176.84 352.27L191.11 338.78L205.37 352.27L204.44 353.48L191.11 340.87ZM191.11 273.58L147.73 314.62L146.8 313.42L191.11 271.49L235.41 313.42L234.48 314.62L191.11 273.58ZM191.11 307.22L162.75 334.05L161.82 332.84L191.11 305.14L220.39 332.84L219.46 334.05L191.11 307.22ZM116.75 523.48L191.11 453.13L265.46 523.48L264.53 524.69L191.11 455.22L117.68 524.69L116.75 523.48ZM101.72 504.05L191.11 419.49L280.49 504.05L279.56 505.26L191.11 421.58L102.66 505.26L101.72 504.05ZM0 342.16L0 340.07L12.9 352.27L11.96 353.48L0 342.16ZM0 274.88L0 272.79L42.94 313.42L42.01 314.62L0 274.88ZM0 308.52L0 306.43L27.92 332.84L26.99 334.05L0 308.52ZM0 422.87L0 420.78L88.01 504.05L87.08 505.26L0 422.87ZM0 456.51L0 454.42L72.99 523.48L72.06 524.69L0 456.51ZM287.34 330.75L213.91 400.23L212.97 399.02L287.34 328.66L361.71 399.02L360.78 400.23L287.34 330.75ZM273.07 476.73L287.34 463.23L301.62 476.73L300.68 477.94L287.34 465.31L274 477.94L273.07 476.73ZM287.34 398.03L243.95 439.08L243.02 437.88L287.34 395.94L331.67 437.88L330.73 439.08L287.34 398.03ZM258.04 457.3L287.34 429.58L316.64 457.3L315.71 458.51L287.34 431.67L258.98 458.51L258.04 457.3ZM287.34 297.11L198.88 380.8L197.95 379.59L287.34 295.02L376.74 379.59L375.8 380.8L287.34 297.11ZM383.58 340.87L370.25 353.48L369.32 352.27L383.58 338.78L397.84 352.27L396.91 353.48L383.58 340.87ZM383.58 273.58L340.2 314.62L339.27 313.42L383.58 271.49L427.89 313.42L426.96 314.62L383.58 273.58ZM383.58 307.22L355.23 334.05L354.29 332.84L383.58 305.14L412.87 332.84L411.93 334.05L383.58 307.22ZM309.22 523.48L383.58 453.13L457.94 523.48L457.01 524.69L383.58 455.22L310.15 524.69L309.22 523.48ZM294.2 504.05L383.58 419.49L472.96 504.05L472.03 505.26L383.58 421.58L295.13 505.26L294.2 504.05ZM479.82 330.75L406.38 400.23L405.45 399.02L479.82 328.66L554.19 399.02L553.25 400.23L479.82 330.75ZM479.82 465.31L466.47 477.94L465.54 476.73L479.82 463.23L494.09 476.73L493.16 477.94L479.82 465.31ZM479.82 398.03L436.42 439.08L435.49 437.88L479.82 395.94L524.14 437.88L523.21 439.08L479.82 398.03ZM450.52 457.3L479.82 429.58L509.11 457.3L508.18 458.51L479.82 431.67L451.45 458.51L450.52 457.3ZM390.42 379.59L479.82 295.02L569.21 379.59L568.28 380.8L479.82 297.11L391.36 380.8L390.42 379.59ZM561.79 352.27L576.05 338.78L590.31 352.27L589.38 353.48L576.05 340.87L562.72 353.48L561.79 352.27ZM576.05 273.58L532.67 314.62L531.74 313.42L576.05 271.49L620.36 313.42L619.43 314.62L576.05 273.58ZM576.05 307.22L547.7 334.05L546.77 332.84L576.05 305.14L605.34 332.84L604.41 334.05L576.05 307.22ZM501.69 523.48L576.05 453.13L650.41 523.48L649.48 524.69L576.05 455.22L502.63 524.69L501.69 523.48ZM486.67 504.05L576.05 419.49L665.43 504.05L664.5 505.26L576.05 421.58L487.6 505.26L486.67 504.05ZM672.29 330.75L598.85 400.23L597.92 399.02L672.29 328.66L746.66 399.02L745.73 400.23L672.29 330.75ZM672.29 465.31L658.95 477.94L658.02 476.73L672.29 463.23L686.56 476.73L685.63 477.94L672.29 465.31ZM627.97 437.88L672.29 395.94L716.61 437.88L715.68 439.08L672.29 398.03L628.9 439.08L627.97 437.88ZM642.99 457.3L672.29 429.58L701.59 457.3L700.65 458.51L672.29 431.67L643.92 458.51L642.99 457.3ZM672.29 297.11L583.83 380.8L582.9 379.59L672.29 295.02L761.68 379.59L760.75 380.8L672.29 297.11ZM754.26 352.27L768.52 338.78L782.79 352.27L781.86 353.48L768.53 340.87L755.2 353.48L754.26 352.27ZM768.53 273.58L725.15 314.62L724.22 313.42L768.52 271.49L812.84 313.42L811.9 314.62L768.53 273.58ZM768.53 307.22L740.17 334.05L739.24 332.84L768.53 305.14L797.81 332.84L796.88 334.05L768.53 307.22ZM694.17 523.48L768.52 453.13L842.88 523.48L841.95 524.68L768.53 455.22L695.1 524.69L694.17 523.48ZM679.15 504.05L768.52 419.49L857.91 504.05L856.98 505.26L768.53 421.58L680.08 505.26L679.15 504.05ZM864.76 330.75L791.32 400.23L790.39 399.02L864.76 328.66L939.13 399.02L938.2 400.23L864.76 330.75ZM864.76 465.31L851.42 477.94L850.49 476.73L864.76 463.23L879.04 476.73L878.11 477.94L864.76 465.31ZM864.76 398.03L821.37 439.08L820.44 437.88L864.76 395.94L909.09 437.88L908.15 439.08L864.76 398.03ZM835.47 457.3L864.76 429.58L894.06 457.3L893.13 458.51L864.76 431.67L836.4 458.51L835.47 457.3ZM864.76 297.11L776.3 380.8L775.37 379.59L864.76 295.02L954.16 379.59L953.22 380.8L864.76 297.11ZM961 340.87L947.67 353.48L946.74 352.27L961 338.78L975.26 352.27L974.33 353.48L961 340.87ZM961 273.58L917.62 314.62L916.69 313.42L961 271.49L1005.31 313.42L1004.38 314.62L961 273.58ZM961 307.22L932.64 334.05L931.72 332.84L961 305.14L990.28 332.84L989.35 334.05L961 307.22ZM886.64 523.48L961 453.13L1035.36 523.48L1034.42 524.69L961 455.22L887.57 524.69L886.64 523.48ZM871.62 504.05L961 419.49L1050.38 504.05L1049.45 505.26L961 421.58L872.55 505.26L871.62 504.05ZM982.87 399.02L1057.24 328.66L1131.6 399.02L1130.67 400.23L1057.24 330.75L983.8 400.23L982.87 399.02ZM1057.24 465.31L1043.89 477.94L1042.96 476.73L1057.24 463.23L1071.51 476.73L1070.58 477.94L1057.24 465.31ZM1012.91 437.88L1057.24 395.94L1101.56 437.88L1100.63 439.08L1057.24 398.03L1013.85 439.08L1012.91 437.88ZM1027.94 457.3L1057.24 429.58L1086.53 457.3L1085.6 458.51L1057.24 431.67L1028.87 458.51L1027.94 457.3ZM1057.24 297.11L968.78 380.8L967.84 379.59L1057.24 295.02L1146.63 379.59L1145.7 380.8L1057.24 297.11ZM1153.47 340.87L1140.14 353.48L1139.21 352.27L1153.47 338.78L1167.74 352.27L1166.8 353.48L1153.47 340.87ZM1153.47 273.58L1110.1 314.62L1109.16 313.42L1153.47 271.49L1197.78 313.42L1196.85 314.62L1153.47 273.58ZM1153.47 307.22L1125.12 334.05L1124.19 332.84L1153.47 305.14L1182.76 332.84L1181.83 334.05L1153.47 307.22ZM1079.12 523.48L1153.47 453.13L1227.83 523.48L1226.9 524.69L1153.47 455.22L1080.05 524.69L1079.12 523.48ZM1064.09 504.05L1153.47 419.49L1242.86 504.05L1241.92 505.26L1153.47 421.58L1065.02 505.26L1064.09 504.05ZM1175.34 399.02L1249.71 328.66L1324.08 399.02L1323.15 400.23L1249.71 330.75L1176.27 400.23L1175.34 399.02ZM1235.44 476.73L1249.71 463.23L1263.98 476.73L1263.05 477.94L1249.71 465.31L1236.37 477.94L1235.44 476.73ZM1249.71 398.03L1206.32 439.08L1205.39 437.88L1249.71 395.94L1294.03 437.88L1293.1 439.08L1249.71 398.03ZM1220.41 457.3L1249.71 429.58L1279.01 457.3L1278.08 458.51L1249.71 431.67L1221.34 458.51L1220.41 457.3ZM1249.71 297.11L1161.25 380.8L1160.32 379.59L1249.71 295.02L1339.1 379.59L1338.17 380.8L1249.71 297.11ZM1345.95 340.87L1332.62 353.48L1331.69 352.27L1345.92 338.8L1345.94 338.82L1345.96 338.79L1360.21 352.27L1359.28 353.48L1345.95 340.87ZM1345.95 273.58L1302.57 314.62L1301.64 313.42L1345.92 271.52L1345.94 271.53L1345.96 271.51L1390.26 313.42L1389.32 314.62L1345.95 273.58ZM1345.95 307.22L1317.59 334.05L1316.66 332.84L1345.92 305.16L1345.94 305.17L1345.96 305.15L1375.23 332.84L1374.3 334.05L1345.95 307.22ZM1271.59 523.48L1345.92 453.15L1345.94 453.17L1345.96 453.14L1420.3 523.48L1419.37 524.69L1345.95 455.22L1272.52 524.69L1271.59 523.48ZM1256.56 504.05L1345.92 419.51L1345.94 419.53L1345.96 419.5L1435.33 504.05L1434.4 505.26L1345.95 421.58L1257.5 505.26L1256.56 504.05ZM1442.18 330.75L1368.75 400.23L1367.81 399.02L1442.18 328.66L1516.55 399.02L1515.62 400.23L1442.18 330.75ZM1442.18 465.31L1428.84 477.94L1427.91 476.73L1442.18 463.23L1456.46 476.73L1455.52 477.94L1442.18 465.31ZM1442.18 398.03L1398.79 439.08L1397.86 437.88L1442.18 395.94L1486.5 437.88L1485.57 439.08L1442.18 398.03ZM1442.18 431.67L1413.82 458.51L1412.89 457.3L1442.18 429.58L1471.48 457.3L1470.55 458.51L1442.18 431.67ZM1442.18 297.11L1353.72 380.8L1352.79 379.59L1442.18 295.02L1531.58 379.59L1530.64 380.8L1442.18 297.11ZM1538.42 340.87L1525.09 353.48L1524.16 352.27L1538.4 338.8L1538.41 338.82L1538.43 338.79L1552.68 352.27L1551.75 353.48L1538.42 340.87ZM1538.42 273.58L1495.04 314.62L1494.11 313.42L1538.4 271.52L1538.41 271.53L1538.43 271.51L1582.73 313.42L1581.8 314.62L1538.42 273.58ZM1538.42 307.22L1510.07 334.05L1509.13 332.84L1538.4 305.16L1538.41 305.17L1538.43 305.15L1567.71 332.84L1566.77 334.05L1538.42 307.22ZM1538.42 455.22L1464.99 524.68L1464.06 523.48L1538.4 453.15L1538.41 453.17L1538.43 453.14L1612.78 523.48L1611.85 524.69L1538.42 455.22ZM1449.04 504.05L1538.4 419.51L1538.41 419.53L1538.43 419.5L1627.8 504.05L1626.87 505.26L1538.42 421.58L1449.97 505.26L1449.04 504.05ZM94.87 579.67L21.43 649.15L20.5 647.94L94.87 577.58L169.24 647.94L168.31 649.15L94.87 579.67ZM80.59 725.65L94.87 712.15L109.14 725.65L108.21 726.86L94.87 714.23L81.53 726.86L80.59 725.65ZM50.55 686.8L94.87 644.86L139.19 686.8L138.26 688L94.87 646.95L51.48 688L50.55 686.8ZM94.87 680.59L66.5 707.43L65.57 706.22L94.87 678.5L124.17 706.22L123.24 707.43L94.87 680.59ZM94.87 546.03L6.41 629.72L5.48 628.51L94.87 543.94L184.26 628.51L183.33 629.72L94.87 546.03ZM176.84 601.19L191.11 587.7L205.37 601.19L204.44 602.4L191.11 589.79L177.78 602.4L176.84 601.19ZM146.8 562.34L191.02 520.49L191.04 520.51L191.12 520.43L235.41 562.34L234.48 563.54L191.11 522.5L147.73 563.54L146.8 562.34ZM191.11 556.14L162.75 582.97L161.82 581.76L191.02 554.13L191.04 554.15L191.12 554.07L220.39 581.76L219.46 582.97L191.11 556.14ZM234.28 744.99L191.11 704.14L147.93 744.99L145.73 744.99L191.11 702.05L236.49 744.99L234.28 744.99ZM198.72 744.99L191.11 737.78L183.49 744.99L181.28 744.99L191.11 735.69L200.93 744.99L198.72 744.99ZM269.84 744.99L191.11 670.5L112.37 744.99L110.17 744.99L191.11 668.41L272.04 744.99L269.84 744.99ZM0 591.08L0 588.99L12.9 601.19L11.96 602.4L0 591.08ZM0 523.8L0 521.71L42.94 562.34L42.01 563.54L0 523.8ZM0 557.44L0 555.35L27.92 581.76L26.99 582.97L0 557.44ZM77.36 744.99L0 671.79L0 669.7L79.57 744.99L77.36 744.99ZM6.25 744.99L0 739.07L0 736.99L8.46 744.99L6.25 744.99ZM41.8 744.99L0 705.43L0 703.34L44.01 744.99L41.8 744.99ZM287.34 579.67L213.91 649.15L212.97 647.94L287.34 577.58L361.71 647.94L360.78 649.15L287.34 579.67ZM273.07 725.65L287.34 712.15L301.62 725.65L300.68 726.86L287.34 714.23L274 726.86L273.07 725.65ZM287.34 646.95L243.95 688L243.02 686.8L287.34 644.86L331.67 686.8L330.73 688L287.34 646.95ZM258.04 706.22L287.34 678.5L316.64 706.22L315.71 707.43L287.34 680.59L258.98 707.43L258.04 706.22ZM287.34 546.03L198.88 629.72L197.95 628.51L287.34 543.94L376.74 628.51L375.8 629.72L287.34 546.03ZM383.58 589.79L370.25 602.4L369.32 601.19L383.58 587.7L397.84 601.19L396.91 602.4L383.58 589.79ZM339.27 562.34L383.55 520.44L383.63 520.51L383.65 520.48L427.89 562.34L426.96 563.54L383.58 522.5L340.2 563.54L339.27 562.34ZM383.58 556.14L355.23 582.97L354.29 581.76L383.55 554.08L383.63 554.15L383.65 554.12L412.87 581.76L411.93 582.97L383.58 556.14ZM426.75 744.99L383.58 704.14L340.41 744.99L338.2 744.99L383.58 702.05L428.96 744.99L426.75 744.99ZM391.19 744.99L383.58 737.78L375.96 744.99L373.76 744.99L383.58 735.69L393.4 744.99L391.19 744.99ZM462.31 744.99L383.58 670.5L304.85 744.99L302.64 744.99L383.58 668.41L464.52 744.99L462.31 744.99ZM479.82 579.67L406.38 649.15L405.45 647.94L479.82 577.58L554.19 647.94L553.25 649.15L479.82 579.67ZM479.82 714.23L466.47 726.86L465.54 725.65L479.82 712.15L494.09 725.65L493.16 726.86L479.82 714.23ZM479.82 646.95L436.42 688L435.49 686.8L479.82 644.86L524.14 686.8L523.21 688L479.82 646.95ZM450.52 706.22L479.82 678.5L509.11 706.22L508.18 707.43L479.82 680.59L451.45 707.43L450.52 706.22ZM390.42 628.51L479.82 543.94L569.21 628.51L568.28 629.72L479.82 546.03L391.36 629.72L390.42 628.51ZM561.79 601.19L576.05 587.7L590.31 601.19L589.38 602.4L576.05 589.79L562.72 602.4L561.79 601.19ZM531.74 562.34L576.05 520.41L620.36 562.34L619.43 563.54L576.05 522.5L532.67 563.54L531.74 562.34ZM576.05 556.14L547.7 582.97L546.77 581.76L576.05 554.06L605.34 581.76L604.41 582.97L576.05 556.14ZM619.23 744.99L576.05 704.14L532.88 744.99L530.67 744.99L576.05 702.05L621.43 744.99L619.23 744.99ZM583.67 744.99L576.05 737.78L568.44 744.99L566.23 744.99L576.05 735.69L585.87 744.99L583.67 744.99ZM654.78 744.99L576.05 670.5L497.32 744.99L495.11 744.99L576.05 668.41L656.99 744.99L654.78 744.99ZM672.29 579.67L598.85 649.15L597.92 647.94L672.29 577.58L746.66 647.94L745.73 649.15L672.29 579.67ZM672.29 714.23L658.95 726.86L658.02 725.65L672.29 712.15L686.56 725.65L685.63 726.86L672.29 714.23ZM627.97 686.8L672.29 644.86L716.61 686.8L715.68 688L672.29 646.95L628.9 688L627.97 686.8ZM642.99 706.22L672.29 678.5L701.59 706.22L700.65 707.43L672.29 680.59L643.92 707.43L642.99 706.22ZM672.29 546.03L583.83 629.72L582.9 628.51L672.29 543.94L761.68 628.51L760.75 629.72L672.29 546.03ZM754.26 601.19L768.53 587.7L782.79 601.19L781.86 602.4L768.53 589.79L755.2 602.4L754.26 601.19ZM724.22 562.34L768.52 520.41L812.84 562.34L811.9 563.54L768.53 522.5L725.15 563.54L724.22 562.34ZM768.53 556.14L740.17 582.97L739.24 581.76L768.53 554.06L797.81 581.76L796.88 582.97L768.53 556.14ZM811.7 744.99L768.53 704.14L725.35 744.99L723.15 744.99L768.52 702.05L813.91 744.99L811.7 744.99ZM776.14 744.99L768.53 737.78L760.91 744.99L758.7 744.99L768.52 735.69L778.35 744.99L776.14 744.99ZM847.26 744.99L768.53 670.5L689.79 744.99L687.59 744.99L768.52 668.41L849.47 744.99L847.26 744.99ZM864.76 579.67L791.32 649.15L790.39 647.94L864.76 577.58L939.13 647.94L938.2 649.15L864.76 579.67ZM864.76 714.23L851.42 726.86L850.49 725.65L864.76 712.15L879.04 725.65L878.11 726.86L864.76 714.23ZM864.76 646.95L821.37 688L820.44 686.8L864.76 644.86L909.09 686.8L908.15 688L864.76 646.95ZM835.47 706.22L864.76 678.5L894.06 706.22L893.13 707.43L864.76 680.59L836.4 707.43L835.47 706.22ZM864.76 546.03L776.3 629.72L775.37 628.51L864.76 543.94L954.16 628.51L953.22 629.72L864.76 546.03ZM946.74 601.19L961 587.7L975.26 601.19L974.33 602.4L961 589.79L947.67 602.4L946.74 601.19ZM916.69 562.34L961 520.41L1005.31 562.34L1004.38 563.54L961 522.5L917.62 563.54L916.69 562.34ZM961 556.14L932.64 582.97L931.72 581.76L961 554.06L990.28 581.76L989.35 582.97L961 556.14ZM1004.17 744.99L961 704.14L917.83 744.99L915.62 744.99L961 702.05L1006.38 744.99L1004.17 744.99ZM968.61 744.99L961 737.78L953.39 744.99L951.18 744.99L961 735.69L970.82 744.99L968.61 744.99ZM1039.73 744.99L961 670.5L882.27 744.99L880.06 744.99L961 668.41L1041.94 744.99L1039.73 744.99ZM982.87 647.94L1057.24 577.58L1131.6 647.94L1130.67 649.15L1057.24 579.67L983.8 649.15L982.87 647.94ZM1057.24 714.23L1043.89 726.86L1042.96 725.65L1057.24 712.15L1071.51 725.65L1070.58 726.86L1057.24 714.23ZM1012.91 686.8L1057.24 644.86L1101.56 686.8L1100.63 688L1057.24 646.95L1013.85 688L1012.91 686.8ZM1027.94 706.22L1057.24 678.5L1086.53 706.22L1085.6 707.43L1057.24 680.59L1028.87 707.43L1027.94 706.22ZM1057.24 546.03L968.78 629.72L967.84 628.51L1057.24 543.94L1146.63 628.51L1145.7 629.72L1057.24 546.03ZM1139.21 601.19L1153.48 587.7L1167.74 601.19L1166.8 602.4L1153.47 589.79L1140.14 602.4L1139.21 601.19ZM1153.47 522.5L1110.1 563.54L1109.16 562.34L1153.47 520.41L1197.78 562.34L1196.85 563.54L1153.47 522.5ZM1153.47 556.14L1125.12 582.97L1124.19 581.76L1153.47 554.06L1182.76 581.76L1181.83 582.97L1153.47 556.14ZM1196.65 744.99L1153.47 704.14L1110.3 744.99L1108.09 744.99L1153.47 702.05L1198.85 744.99L1196.65 744.99ZM1161.09 744.99L1153.47 737.78L1145.86 744.99L1143.65 744.99L1153.47 735.69L1163.3 744.99L1161.09 744.99ZM1232.21 744.99L1153.47 670.5L1074.74 744.99L1072.53 744.99L1153.47 668.41L1234.41 744.99L1232.21 744.99ZM1175.34 647.94L1249.71 577.58L1324.08 647.94L1323.15 649.15L1249.71 579.67L1176.27 649.15L1175.34 647.94ZM1235.44 725.65L1249.71 712.15L1263.98 725.65L1263.05 726.86L1249.71 714.23L1236.37 726.86L1235.44 725.65ZM1249.71 646.95L1206.32 688L1205.39 686.8L1249.71 644.86L1294.03 686.8L1293.1 688L1249.71 646.95ZM1220.41 706.22L1249.71 678.5L1279.01 706.22L1278.08 707.43L1249.71 680.59L1221.34 707.43L1220.41 706.22ZM1249.71 546.03L1161.25 629.72L1160.32 628.51L1249.71 543.94L1339.1 628.51L1338.17 629.72L1249.71 546.03ZM1331.69 601.19L1345.92 587.72L1345.94 587.74L1345.96 587.71L1360.21 601.19L1359.28 602.4L1345.95 589.79L1332.62 602.4L1331.69 601.19ZM1345.95 522.5L1302.57 563.54L1301.64 562.34L1345.86 520.49L1345.94 520.58L1346.02 520.48L1390.26 562.34L1389.32 563.54L1345.95 522.5ZM1345.95 556.14L1317.59 582.97L1316.66 581.76L1345.86 554.13L1345.94 554.22L1346.02 554.13L1375.23 581.76L1374.3 582.97L1345.95 556.14ZM1389.12 744.99L1345.95 704.14L1302.77 744.99L1300.57 744.99L1345.92 702.07L1345.94 702.09L1345.96 702.06L1391.33 744.99L1389.12 744.99ZM1353.56 744.99L1345.95 737.78L1338.33 744.99L1336.13 744.99L1345.92 735.72L1345.94 735.73L1345.96 735.71L1355.77 744.99L1353.56 744.99ZM1424.68 744.99L1345.95 670.5L1267.22 744.99L1265.01 744.99L1345.92 668.43L1345.94 668.45L1345.96 668.42L1426.88 744.99L1424.68 744.99ZM1442.18 579.67L1368.75 649.15L1367.81 647.94L1442.18 577.58L1516.55 647.94L1515.62 649.15L1442.18 579.67ZM1442.18 714.23L1428.84 726.86L1427.91 725.65L1442.18 712.15L1456.46 725.65L1455.52 726.86L1442.18 714.23ZM1442.18 646.95L1398.79 688L1397.86 686.8L1442.18 644.86L1486.5 686.8L1485.57 688L1442.18 646.95ZM1442.18 680.59L1413.82 707.43L1412.89 706.22L1442.18 678.5L1471.48 706.22L1470.55 707.43L1442.18 680.59ZM1442.18 546.03L1353.72 629.72L1352.79 628.51L1442.18 543.94L1531.58 628.51L1530.64 629.72L1442.18 546.03ZM1538.42 589.79L1525.09 602.4L1524.16 601.19L1538.4 587.72L1538.41 587.74L1538.43 587.71L1552.68 601.19L1551.75 602.4L1538.42 589.79ZM1538.42 522.5L1495.04 563.54L1494.11 562.34L1538.34 520.49L1538.41 520.58L1538.49 520.48L1582.73 562.34L1581.8 563.54L1538.42 522.5ZM1538.42 556.14L1510.07 582.97L1509.13 581.76L1538.34 554.13L1538.41 554.22L1538.49 554.13L1567.71 581.76L1566.77 582.97L1538.42 556.14ZM1581.59 744.99L1538.42 704.14L1495.25 744.99L1493.04 744.99L1538.4 702.07L1538.41 702.09L1538.43 702.06L1583.8 744.99L1581.59 744.99ZM1546.04 744.99L1538.42 737.78L1530.81 744.99L1528.6 744.99L1538.4 735.72L1538.41 735.73L1538.43 735.71L1548.24 744.99L1546.04 744.99ZM1617.15 744.99L1538.42 670.5L1459.69 744.99L1457.48 744.99L1538.4 668.43L1538.41 668.45L1538.43 668.42L1619.36 744.99L1617.15 744.99ZM1634.66 14.54L1598.09 49.14L1598.83 48.18L1597.17 46.6L1598.97 47.99L1604.17 41.28L1634.66 12.46L1665.29 41.44L1669.55 46.97L1718.16 0.98L1720.37 0.98L1670.48 48.18L1671.23 49.14L1634.66 14.54ZM1548.95 0.98L1551.15 0.98L1597.75 45.07L1596.82 46.27L1548.95 0.98ZM1634.66 81.83L1561.22 151.31L1560.29 150.1L1634.66 79.74L1709.03 150.1L1708.09 151.31L1634.66 81.83ZM1634.66 216.39L1621.31 229.02L1620.38 227.81L1634.66 214.31L1648.93 227.81L1648 229.02L1634.66 216.39ZM1634.66 149.11L1591.27 190.16L1590.34 188.96L1634.66 147.02L1678.98 188.96L1678.05 190.16L1634.66 149.11ZM1634.66 182.75L1606.29 209.59L1605.36 208.38L1634.66 180.66L1663.96 208.38L1663.02 209.59L1634.66 182.75ZM1634.66 48.19L1546.19 131.88L1545.26 130.67L1634.66 46.1L1724.05 130.67L1723.12 131.88L1634.66 48.19ZM1656.53 25.64L1682.61 0.98L1684.81 0.98L1657.47 26.85L1656.53 25.64ZM1641.51 6.21L1647.05 0.98L1649.25 0.98L1642.44 7.42L1641.51 6.21ZM1701.61 83.92L1730.81 56.29L1730.88 56.38L1730.97 56.28L1760.18 83.92L1759.25 85.13L1730.89 58.3L1702.54 85.13L1701.61 83.92ZM1656.53 274.56L1730.87 204.23L1730.88 204.25L1730.91 204.23L1805.25 274.56L1804.32 275.77L1730.89 206.3L1657.47 275.77L1656.53 274.56ZM1641.51 255.13L1730.87 170.59L1730.88 170.61L1730.91 170.58L1820.27 255.13L1819.35 256.34L1730.89 172.66L1642.44 256.34L1641.51 255.13ZM1538.42 91.95L1525.09 104.56L1524.16 103.35L1538.4 89.88L1538.41 89.9L1538.43 89.87L1552.68 103.35L1551.75 104.56L1538.42 91.95ZM1538.42 24.66L1495.04 65.7L1494.11 64.5L1538.34 22.65L1538.41 22.74L1538.49 22.64L1582.73 64.5L1581.8 65.7L1538.42 24.66ZM1620.06 0.98L1622.27 0.98L1627.8 6.21L1626.87 7.42L1620.06 0.98ZM1584.5 0.98L1586.71 0.98L1612.78 25.64L1611.85 26.85L1584.5 0.98ZM1791.31 48.18L1789.63 46.59L1791.45 47.99L1796.64 41.28L1827.13 12.46L1857.76 41.44L1862.02 46.97L1910.64 0.98L1912.84 0.98L1862.95 48.18L1863.7 49.14L1827.13 14.54L1790.55 49.15L1791.31 48.18ZM1741.42 0.98L1743.63 0.98L1790.23 45.07L1789.29 46.27L1741.42 0.98ZM1827.13 81.83L1753.69 151.31L1752.76 150.1L1827.13 79.74L1901.5 150.1L1900.57 151.31L1827.13 81.83ZM1827.13 216.39L1813.79 229.02L1812.86 227.81L1827.13 214.31L1841.4 227.81L1840.47 229.02L1827.13 216.39ZM1827.13 149.11L1783.74 190.16L1782.81 188.96L1827.13 147.02L1871.45 188.96L1870.52 190.16L1827.13 149.11ZM1797.83 208.38L1827.13 180.66L1856.43 208.38L1855.5 209.59L1827.13 182.75L1798.76 209.59L1797.83 208.38ZM1827.13 48.19L1738.67 131.88L1737.74 130.67L1827.13 46.1L1916.52 130.67L1915.59 131.88L1827.13 48.19ZM1909.1 103.35L1922 91.15L1922 93.24L1910.04 104.56L1909.1 103.35ZM1849.01 25.64L1875.08 0.98L1877.28 0.98L1849.94 26.85L1849.01 25.64ZM1833.99 6.21L1839.52 0.98L1841.73 0.98L1834.92 7.42L1833.99 6.21ZM1879.06 64.5L1922 23.87L1922 25.96L1879.99 65.7L1879.06 64.5ZM1894.08 83.92L1922 57.51L1922 59.6L1895.01 85.13L1894.08 83.92ZM1502.61 172.64L1442.18 115.47L1381.76 172.64L1382.51 173.6L1345.95 139.02L1309.38 173.61L1310.14 172.64L1249.71 115.47L1189.28 172.64L1190.03 173.6L1153.47 139.02L1116.91 173.61L1117.66 172.64L1057.24 115.47L996.81 172.64L997.57 173.61L961 139.02L924.43 173.61L925.19 172.64L864.76 115.47L804.34 172.64L805.09 173.61L768.53 139.02L731.95 173.62L732.71 172.64L672.29 115.47L611.86 172.64L612.62 173.61L576.05 139.02L539.48 173.61L540.24 172.64L479.82 115.47L419.39 172.64L420.14 173.61L383.58 139.02L347.01 173.61L347.77 172.64L287.34 115.47L226.92 172.64L227.67 173.61L191.11 139.02L154.54 173.61L155.29 172.64L94.87 115.47L34.45 172.64L35.2 173.61L0 140.31L0 138.22L29.25 165.9L30.75 167.86L33.51 171.43L94.87 113.38L154.22 169.53L153.47 170.49L155.66 172.17L160.63 165.74L191.11 136.93L221.73 165.9L223.22 167.86L225.99 171.43L287.34 113.38L348.7 171.43L350.37 169.27L353.1 165.74L383.58 136.93L414.2 165.9L418.46 171.43L479.82 113.38L539.16 169.53L538.39 170.53L540.57 172.21L545.57 165.74L576.05 136.93L606.68 165.9L608.17 167.86L610.93 171.43L672.29 113.38L733.65 171.43L737.98 165.82L768.52 136.93L799.15 165.9L800.64 167.86L803.41 171.43L864.76 113.38L926.12 171.43L928.85 167.9L930.52 165.74L961 136.93L991.62 165.9L993.12 167.86L995.88 171.43L1057.24 113.38L1118.59 171.43L1121.33 167.9L1122.99 165.74L1153.47 136.93L1184.1 165.9L1185.59 167.86L1188.35 171.43L1249.71 113.38L1311.06 171.43L1315.47 165.74L1345.92 136.95L1345.94 136.97L1345.96 136.94L1376.57 165.9L1380.83 171.43L1442.18 113.38L1503.54 171.43L1504.49 170.21L1507.94 165.74L1538.4 136.95L1538.41 136.97L1538.43 136.94L1569.04 165.9L1573.3 171.43L1634.66 113.38L1694 169.53L1693.07 170.73L1634.66 115.47L1574.23 172.64L1574.98 173.6L1538.42 139.02L1501.85 173.62L1502.61 172.64ZM1696.91 170.27L1700.42 165.74L1730.87 136.95L1730.88 136.97L1730.91 136.94L1761.52 165.9L1765.77 171.43L1827.13 113.38L1886.47 169.53L1885.54 170.73L1827.13 115.47L1766.7 172.64L1767.46 173.61L1730.89 139.02L1694.32 173.61L1696.91 170.27ZM1892.89 165.74L1922 138.22L1922 140.31L1886.81 173.61L1892.89 165.74ZM1716.63 103.35L1730.87 89.88L1730.88 89.9L1730.91 89.87L1745.15 103.35L1744.22 104.56L1730.89 91.95L1717.56 104.56L1716.63 103.35ZM1686.58 64.49L1730.81 22.65L1730.88 22.74L1730.97 22.64L1775.2 64.5L1774.27 65.7L1730.89 24.66L1687.52 65.7L1686.58 64.49ZM1812.54 0.98L1814.74 0.98L1820.27 6.21L1819.35 7.42L1812.54 0.98ZM1776.97 0.98L1779.18 0.98L1805.25 25.64L1804.32 26.85L1776.97 0.98ZM1634.66 330.75L1561.22 400.23L1560.29 399.02L1634.66 328.66L1709.03 399.02L1708.09 400.23L1634.66 330.75ZM1634.66 465.31L1621.31 477.94L1620.38 476.73L1634.66 463.23L1648.93 476.73L1648 477.94L1634.66 465.31ZM1634.66 398.03L1591.27 439.08L1590.34 437.88L1634.66 395.94L1678.98 437.88L1678.05 439.08L1634.66 398.03ZM1634.66 431.67L1606.29 458.51L1605.36 457.3L1634.66 429.58L1663.96 457.3L1663.02 458.51L1634.66 431.67ZM1634.66 297.11L1546.19 380.8L1545.26 379.59L1634.66 295.02L1724.05 379.59L1723.12 380.8L1634.66 297.11ZM1716.63 352.27L1730.87 338.8L1730.88 338.82L1730.91 338.79L1745.15 352.27L1744.22 353.48L1730.89 340.87L1717.56 353.48L1716.63 352.27ZM1730.89 273.58L1687.52 314.62L1686.58 313.41L1730.87 271.52L1730.88 271.53L1730.91 271.51L1775.2 313.42L1774.27 314.62L1730.89 273.58ZM1701.61 332.84L1730.87 305.16L1730.88 305.17L1730.91 305.15L1760.18 332.84L1759.25 334.05L1730.89 307.22L1702.54 334.05L1701.61 332.84ZM1656.53 523.48L1730.87 453.15L1730.88 453.17L1730.91 453.15L1805.25 523.48L1804.32 524.69L1730.89 455.22L1657.47 524.69L1656.53 523.48ZM1641.51 504.05L1730.87 419.51L1730.88 419.53L1730.91 419.5L1820.27 504.05L1819.35 505.26L1730.89 421.58L1642.44 505.26L1641.51 504.05ZM1213.89 297.1L1153.47 239.94L1093.06 297.1L1093.81 298.06L1057.24 263.46L1020.66 298.07L1021.41 297.1L1019.74 295.51L1021.56 296.91L1026.74 290.2L1057.24 261.38L1087.87 290.36L1092.13 295.89L1153.47 237.85L1214.82 295.89L1219.22 290.2L1249.71 261.38L1280.34 290.36L1284.6 295.89L1345.92 237.88L1345.94 237.89L1345.96 237.87L1407.29 295.89L1411.69 290.2L1442.18 261.38L1472.82 290.36L1477.07 295.89L1538.4 237.88L1538.41 237.89L1538.43 237.87L1597.75 293.99L1596.82 295.19L1538.42 239.94L1478.01 297.1L1478.75 298.06L1442.18 263.46L1405.61 298.06L1406.36 297.1L1345.95 239.94L1285.53 297.1L1286.27 298.05L1249.71 263.46L1213.14 298.07L1213.89 297.1ZM1791.31 297.1L1789.63 295.51L1791.45 296.91L1796.64 290.2L1827.13 261.38L1857.76 290.36L1862.02 295.89L1922 239.14L1922 241.23L1862.95 297.1L1863.7 298.06L1827.13 263.46L1790.55 298.07L1791.31 297.1ZM443.99 297.1L442.32 295.51L444.13 296.91L449.33 290.2L479.82 261.38L510.45 290.36L514.71 295.89L576.05 237.85L635.39 293.99L634.45 295.19L576.05 239.94L515.64 297.1L516.39 298.06L479.82 263.46L443.24 298.07L443.99 297.1ZM828.94 297.1L827.26 295.51L829.08 296.91L834.27 290.2L864.76 261.38L895.4 290.36L899.66 295.89L961 237.85L1020.33 293.99L1019.4 295.19L961 239.94L900.59 297.1L901.34 298.06L864.76 263.46L828.19 298.07L828.94 297.1ZM636.47 297.1L634.79 295.51L636.61 296.91L641.8 290.2L672.29 261.38L702.92 290.36L707.18 295.89L768.52 237.85L827.86 293.99L826.93 295.19L768.53 239.94L708.11 297.1L708.86 298.06L672.29 263.46L635.71 298.07L636.47 297.1ZM251.52 297.1L191.11 239.94L130.69 297.1L131.44 298.06L94.87 263.46L58.3 298.06L59.05 297.1L57.38 295.52L59.19 296.91L64.38 290.2L94.87 261.38L125.5 290.36L129.76 295.89L191.11 237.85L252.45 295.89L256.85 290.2L287.34 261.38L317.97 290.36L322.23 295.89L383.58 237.85L442.91 293.99L441.98 295.19L383.58 239.94L323.17 297.1L323.91 298.06L287.34 263.46L250.77 298.07L251.52 297.1ZM1634.66 263.46L1598.09 298.06L1598.83 297.1L1597.17 295.52L1598.97 296.91L1604.17 290.2L1634.66 261.38L1665.29 290.36L1669.55 295.89L1730.87 237.88L1730.88 237.89L1730.91 237.87L1790.23 293.99L1789.29 295.19L1730.89 239.94L1670.48 297.1L1671.23 298.06L1634.66 263.46ZM0 241.23L0 239.14L57.97 293.99L57.03 295.19L0 241.23ZM1827.13 330.75L1753.69 400.23L1752.76 399.02L1827.13 328.66L1901.5 399.02L1900.57 400.23L1827.13 330.75ZM1827.13 465.31L1813.79 477.94L1812.86 476.73L1827.13 463.23L1841.4 476.73L1840.47 477.94L1827.13 465.31ZM1827.13 398.03L1783.74 439.08L1782.81 437.88L1827.13 395.94L1871.45 437.88L1870.52 439.08L1827.13 398.03ZM1797.83 457.3L1827.13 429.58L1856.43 457.3L1855.5 458.51L1827.13 431.67L1798.76 458.51L1797.83 457.3ZM1827.13 297.11L1738.67 380.8L1737.74 379.59L1827.13 295.02L1916.52 379.59L1915.59 380.8L1827.13 297.11ZM1909.1 352.27L1922 340.07L1922 342.16L1910.04 353.48L1909.1 352.27ZM1849.01 274.56L1922 205.5L1922 207.59L1849.94 275.77L1849.01 274.56ZM1833.99 255.13L1922 171.86L1922 173.95L1834.92 256.34L1833.99 255.13ZM1879.06 313.42L1922 272.79L1922 274.88L1879.99 314.62L1879.06 313.42ZM1894.08 332.84L1922 306.43L1922 308.52L1895.01 334.05L1894.08 332.84ZM961 387.94L924.44 422.53L928.43 417.37L930.52 414.66L961 385.85L991.62 414.82L993.12 416.78L995.88 420.35L1057.24 362.3L1116.58 418.45L1115.65 419.65L1057.24 364.39L996.81 421.56L997.56 422.53L961 387.94ZM737.98 414.74L768.52 385.85L799.15 414.82L800.64 416.78L803.41 420.35L864.76 362.3L924.11 418.45L923.18 419.65L864.76 364.39L804.34 421.56L805.09 422.53L768.53 387.94L731.96 422.53L737.98 414.74ZM545.57 414.66L576.05 385.85L606.68 414.82L608.17 416.78L610.93 420.35L672.29 362.3L731.63 418.45L730.7 419.65L672.29 364.39L611.86 421.56L612.62 422.53L576.05 387.94L539.49 422.53L545.57 414.66ZM1730.89 387.94L1694.34 422.52L1700.42 414.66L1730.87 385.87L1730.88 385.89L1730.91 385.86L1761.52 414.82L1765.77 420.35L1827.13 362.3L1886.47 418.45L1885.54 419.65L1827.13 364.39L1766.7 421.56L1767.46 422.53L1730.89 387.94ZM383.58 387.94L347.02 422.52L353.1 414.66L383.58 385.85L414.2 414.82L418.46 420.35L479.82 362.3L539.16 418.45L538.23 419.65L479.82 364.39L419.39 421.56L420.14 422.53L383.58 387.94ZM0 389.23L0 387.14L29.25 414.82L30.75 416.78L33.51 420.35L94.87 362.3L154.22 418.45L153.28 419.65L94.87 364.39L34.44 421.56L35.19 422.53L0 389.23ZM191.11 387.94L154.55 422.52L160.63 414.66L191.11 385.85L221.73 414.82L223.22 416.78L225.99 420.35L287.34 362.3L346.69 418.45L345.76 419.65L287.34 364.39L226.92 421.56L227.67 422.52L191.11 387.94ZM1345.95 387.94L1309.39 422.52L1315.47 414.66L1345.92 385.87L1345.94 385.89L1345.96 385.86L1376.57 414.82L1380.83 420.35L1442.18 362.3L1501.53 418.45L1500.6 419.65L1442.18 364.39L1381.76 421.56L1382.5 422.52L1345.95 387.94ZM1153.47 387.94L1116.92 422.52L1120.9 417.37L1122.99 414.66L1153.47 385.85L1184.1 414.82L1185.59 416.78L1188.35 420.35L1249.71 362.3L1309.06 418.45L1308.12 419.65L1249.71 364.39L1189.28 421.56L1190.03 422.52L1153.47 387.94ZM1538.42 387.94L1501.87 422.52L1507.94 414.66L1538.4 385.87L1538.41 385.89L1538.43 385.86L1569.04 414.82L1573.3 420.35L1634.66 362.3L1694 418.45L1693.07 419.65L1634.66 364.39L1574.23 421.56L1574.98 422.52L1538.42 387.94ZM1892.89 414.66L1922 387.14L1922 389.23L1886.81 422.52L1892.89 414.66ZM1634.66 579.67L1561.22 649.15L1560.29 647.94L1634.66 577.58L1709.03 647.94L1708.09 649.15L1634.66 579.67ZM1634.66 714.23L1621.31 726.86L1620.38 725.65L1634.66 712.15L1648.93 725.65L1648 726.86L1634.66 714.23ZM1634.66 646.95L1591.27 688L1590.34 686.8L1634.66 644.86L1678.98 686.8L1678.05 688L1634.66 646.95ZM1634.66 680.59L1606.29 707.43L1605.36 706.22L1634.66 678.5L1663.96 706.22L1663.02 707.43L1634.66 680.59ZM1634.66 546.03L1546.19 629.72L1545.26 628.51L1634.66 543.94L1724.05 628.51L1723.12 629.72L1634.66 546.03ZM1716.63 601.19L1730.87 587.72L1730.88 587.74L1730.91 587.71L1745.15 601.19L1744.22 602.4L1730.89 589.79L1717.56 602.4L1716.63 601.19ZM1686.58 562.33L1730.81 520.49L1730.88 520.58L1730.97 520.48L1775.2 562.34L1774.27 563.54L1730.89 522.5L1687.52 563.54L1686.58 562.33ZM1701.61 581.76L1730.81 554.13L1730.88 554.22L1730.97 554.13L1760.18 581.76L1759.25 582.97L1730.89 556.14L1702.54 582.97L1701.61 581.76ZM1774.07 744.99L1730.89 704.14L1687.72 744.99L1685.51 744.99L1730.87 702.07L1730.88 702.09L1730.91 702.07L1776.27 744.99L1774.07 744.99ZM1738.51 744.99L1730.89 737.78L1723.28 744.99L1721.07 744.99L1730.87 735.72L1730.88 735.73L1730.91 735.71L1740.71 744.99L1738.51 744.99ZM1809.62 744.99L1730.89 670.5L1652.16 744.99L1649.96 744.99L1730.87 668.43L1730.88 668.45L1730.91 668.42L1811.83 744.99L1809.62 744.99ZM1213.89 546.02L1153.47 488.86L1093.06 546.02L1093.81 546.98L1057.24 512.38L1020.66 546.99L1021.41 546.02L1019.74 544.43L1021.56 545.83L1026.74 539.12L1057.24 510.3L1087.87 539.28L1092.13 544.81L1153.47 486.77L1214.82 544.81L1219.22 539.12L1249.71 510.3L1280.34 539.28L1284.6 544.81L1345.92 486.8L1345.94 486.81L1345.96 486.79L1407.29 544.81L1411.69 539.12L1442.18 510.3L1472.82 539.28L1477.07 544.81L1538.4 486.8L1538.41 486.81L1538.43 486.79L1597.75 542.91L1596.82 544.11L1538.42 488.86L1478.01 546.02L1478.75 546.98L1442.18 512.38L1405.62 546.98L1406.36 546.02L1345.95 488.86L1285.53 546.02L1286.27 546.97L1249.71 512.38L1213.14 546.99L1213.89 546.02ZM1791.31 546.02L1789.63 544.43L1791.45 545.83L1796.64 539.12L1827.13 510.3L1857.76 539.28L1862.02 544.81L1922 488.07L1922 490.15L1862.95 546.02L1863.7 546.98L1827.13 512.38L1790.55 546.99L1791.31 546.02ZM443.99 546.02L442.32 544.43L444.13 545.83L449.33 539.12L479.82 510.3L510.45 539.28L514.71 544.81L576.05 486.77L635.39 542.91L634.45 544.11L576.05 488.86L515.64 546.02L516.39 546.98L479.82 512.38L443.24 546.99L443.99 546.02ZM828.94 546.02L827.27 544.43L829.08 545.83L834.27 539.12L864.76 510.3L895.4 539.28L899.66 544.81L961 486.77L1020.33 542.91L1019.4 544.11L961 488.86L900.59 546.02L901.34 546.98L864.76 512.38L828.19 546.99L828.94 546.02ZM636.47 546.02L634.79 544.43L636.61 545.83L641.8 539.12L672.29 510.3L702.92 539.28L707.18 544.81L768.52 486.77L827.86 542.91L826.93 544.11L768.53 488.86L708.11 546.02L708.86 546.98L672.29 512.38L635.71 546.99L636.47 546.02ZM251.52 546.02L249.85 544.44L251.66 545.83L256.85 539.12L287.34 510.3L317.97 539.28L322.23 544.81L383.58 486.77L442.91 542.91L441.98 544.11L383.58 488.86L323.17 546.02L323.91 546.98L287.34 512.38L250.77 546.99L251.52 546.02ZM1634.66 512.38L1598.09 546.98L1598.83 546.02L1597.17 544.44L1598.97 545.83L1604.17 539.12L1634.66 510.3L1665.29 539.28L1669.55 544.81L1730.87 486.8L1730.88 486.81L1730.91 486.79L1790.23 542.91L1789.29 544.11L1730.89 488.86L1670.48 546.02L1671.23 546.98L1634.66 512.38ZM59.05 546.02L57.38 544.44L59.19 545.83L64.38 539.12L94.87 510.3L125.5 539.28L129.76 544.81L191.11 486.77L250.44 542.91L249.51 544.11L191.11 488.86L130.69 546.02L131.44 546.98L94.87 512.38L58.3 546.98L59.05 546.02ZM0 490.15L0 488.07L57.97 542.91L57.03 544.11L0 490.15ZM1827.13 579.67L1753.69 649.15L1752.76 647.94L1827.13 577.58L1901.5 647.94L1900.57 649.15L1827.13 579.67ZM1827.13 714.23L1813.79 726.86L1812.86 725.65L1827.13 712.15L1841.4 725.65L1840.47 726.86L1827.13 714.23ZM1827.13 646.95L1783.74 688L1782.81 686.8L1827.13 644.86L1871.45 686.8L1870.52 688L1827.13 646.95ZM1797.83 706.22L1827.13 678.5L1856.43 706.22L1855.5 707.43L1827.13 680.59L1798.76 707.43L1797.83 706.22ZM1827.13 546.03L1738.67 629.72L1737.74 628.51L1827.13 543.94L1916.52 628.51L1915.59 629.72L1827.13 546.03ZM1909.1 601.19L1922 588.99L1922 591.08L1910.04 602.4L1909.1 601.19ZM1849.01 523.48L1922 454.42L1922 456.51L1849.94 524.69L1849.01 523.48ZM1833.99 504.05L1922 420.78L1922 422.87L1834.92 505.26L1833.99 504.05ZM1879.06 562.34L1922 521.71L1922 523.8L1879.99 563.54L1879.06 562.34ZM1894.08 581.76L1922 555.35L1922 557.44L1895.01 582.97L1894.08 581.76ZM1502.61 670.48L1442.18 613.31L1381.76 670.48L1382.51 671.44L1345.95 636.86L1309.38 671.45L1310.14 670.48L1249.71 613.31L1189.28 670.48L1190.03 671.44L1153.47 636.86L1116.91 671.45L1117.66 670.48L1057.24 613.31L996.81 670.48L997.57 671.45L961 636.86L924.43 671.45L925.19 670.48L864.76 613.31L804.34 670.48L805.09 671.45L768.53 636.86L731.95 671.46L732.71 670.48L672.29 613.31L611.86 670.48L612.62 671.45L576.05 636.86L539.48 671.45L540.24 670.48L479.82 613.31L419.39 670.48L420.14 671.45L383.58 636.86L347.01 671.45L347.77 670.48L287.34 613.31L226.92 670.48L227.67 671.45L191.11 636.86L154.54 671.45L155.29 670.48L94.87 613.31L34.45 670.48L35.2 671.45L0 638.15L0 636.06L29.25 663.74L30.75 665.7L33.51 669.27L94.87 611.22L154.22 667.37L153.47 668.33L155.66 670.01L160.63 663.58L191.11 634.77L221.73 663.74L223.22 665.7L225.99 669.27L287.34 611.22L348.7 669.27L350.37 667.11L353.1 663.58L383.58 634.77L414.2 663.74L418.46 669.27L479.82 611.22L539.16 667.37L538.39 668.37L540.57 670.05L545.57 663.58L576.05 634.77L606.68 663.74L608.17 665.7L610.93 669.27L672.29 611.22L733.65 669.27L737.98 663.66L768.52 634.77L799.15 663.74L800.64 665.7L803.41 669.27L864.76 611.22L926.12 669.27L928.85 665.74L930.52 663.58L961 634.77L991.62 663.74L993.12 665.7L995.88 669.27L1057.24 611.22L1118.59 669.27L1121.33 665.74L1122.99 663.58L1153.47 634.77L1184.1 663.74L1185.59 665.7L1188.35 669.27L1249.71 611.22L1311.06 669.27L1315.47 663.58L1345.92 634.79L1345.94 634.81L1345.96 634.78L1376.57 663.74L1380.83 669.27L1442.18 611.22L1503.54 669.27L1504.49 668.05L1507.94 663.58L1538.4 634.79L1538.41 634.81L1538.43 634.78L1569.04 663.74L1573.3 669.27L1634.66 611.22L1694 667.37L1693.07 668.58L1634.66 613.31L1574.23 670.48L1574.98 671.44L1538.42 636.86L1501.85 671.46L1502.61 670.48ZM1696.91 668.11L1700.42 663.58L1730.87 634.79L1730.88 634.81L1730.91 634.78L1761.52 663.74L1765.77 669.27L1827.13 611.22L1886.47 667.37L1885.54 668.57L1827.13 613.31L1766.7 670.48L1767.46 671.45L1730.89 636.86L1694.32 671.45L1696.91 668.11ZM1892.89 663.58L1922 636.06L1922 638.15L1886.81 671.45L1892.89 663.58ZM1877.99 744.99L1922 703.34L1922 705.43L1880.19 744.99L1877.99 744.99ZM1913.54 744.99L1922 736.99L1922 739.07L1915.75 744.99L1913.54 744.99ZM1842.43 744.99L1922 669.7L1922 671.79L1844.64 744.99L1842.43 744.99Z" />
		</g>
	</g>
</svg>