<svg xmlns="http://www.w3.org/2000/svg" viewBox="0 0 16 20" width="16" height="20">
	<style>
		tspan { white-space:pre }
		.shp0 { fill: #fe3e57 } 
	</style>
	<g id="Trending products">
		<g id="Item_2">
			<g id="Hover effect">
				<g id="icon">
					<path id="bag" class="shp0" d="M16 17.29L14.85 4.4C14.83 4.11 14.59 3.89 14.31 3.89L11.95 3.89C11.92 1.74 10.16 0 8.01 0C5.85 0 4.09 1.74 4.06 3.89L1.7 3.89C1.42 3.89 1.18 4.11 1.16 4.4L0.01 17.29C0.01 17.31 0.01 17.33 0.01 17.34C0.01 18.81 1.35 20.01 3.01 20.01L13 20.01C14.66 20.01 16 18.81 16 17.34C16 17.33 16 17.31 16 17.29L16 17.29ZM8.01 1.11C9.55 1.11 10.82 2.35 10.85 3.89L5.16 3.89C5.19 2.35 6.46 1.11 8.01 1.11L8.01 1.11ZM13 18.9L3.01 18.9C1.97 18.9 1.13 18.21 1.11 17.37L2.21 5L4.05 5L4.05 6.68C4.05 6.98 4.3 7.23 4.6 7.23C4.91 7.23 5.16 6.98 5.16 6.68L5.16 5L10.85 5L10.85 6.68C10.85 6.98 11.09 7.23 11.4 7.23C11.71 7.23 11.95 6.98 11.95 6.68L11.95 5L13.8 5L14.9 17.37C14.88 18.21 14.04 18.9 13 18.9L13 18.9ZM13 18.9" />
				</g>
			</g>
		</g>
	</g>
</svg>