<svg xmlns="http://www.w3.org/2000/svg" viewBox="0 0 23 20" width="23" height="20">
	<style>
		tspan { white-space:pre }
		.shp0 { fill: #29282d } 
	</style>
	<g id="Trending products">
		<g id="Item_2">
			<g id="Hover effect">
				<g id="icon">
					<path id="love" class="shp0" d="M16.89 0C14.47 0 12.93 1.42 12.07 2.62C11.85 2.93 11.66 3.24 11.5 3.53C11.34 3.24 11.15 2.93 10.93 2.62C10.07 1.42 8.53 0 6.11 0C4.38 0 2.81 0.7 1.68 1.96C0.59 3.17 0 4.79 0 6.52C0 8.41 0.74 10.16 2.35 12.03C3.78 13.71 5.85 15.44 8.24 17.45C9.13 18.19 10.05 18.97 11.03 19.81L11.06 19.83C11.18 19.94 11.34 20 11.5 20C11.66 20 11.82 19.94 11.95 19.83L11.97 19.81C12.95 18.97 13.88 18.19 14.77 17.45C17.16 15.44 19.22 13.71 20.65 12.03C22.26 10.16 23.01 8.41 23.01 6.52C23.01 4.79 22.41 3.17 21.33 1.96C20.19 0.7 18.62 0 16.89 0ZM13.89 16.44C13.12 17.08 12.33 17.74 11.5 18.46C10.67 17.74 9.88 17.08 9.11 16.44C4.43 12.52 1.34 9.93 1.34 6.52C1.34 5.11 1.82 3.81 2.69 2.84C3.56 1.86 4.78 1.33 6.11 1.33C7.96 1.33 9.15 2.44 9.83 3.39C10.44 4.23 10.75 5.08 10.86 5.4C10.95 5.68 11.21 5.86 11.5 5.86C11.79 5.86 12.05 5.68 12.14 5.4C12.25 5.08 12.57 4.23 13.17 3.39C13.85 2.44 15.05 1.33 16.89 1.33C18.23 1.33 19.44 1.86 20.32 2.84C21.18 3.81 21.66 5.11 21.66 6.52C21.66 9.93 18.57 12.52 13.89 16.44Z" />
				</g>
			</g>
		</g>
	</g>
</svg>