<svg xmlns="http://www.w3.org/2000/svg" viewBox="0 0 19 20" width="19" height="20">
	<style>
		tspan { white-space:pre }
		.shp0 { fill: #29282d } 
	</style>
	<g id="Trending products">
		<g id="Item_2">
			<g id="Hover effect">
				<g id="icon">
					<path id="search" class="shp0" d="M18.71 18.22L14.03 13.27C15.23 11.81 15.89 9.98 15.89 8.08C15.89 3.62 12.33 0 7.95 0C3.57 0 0.01 3.62 0.01 8.08C0.01 12.53 3.57 16.15 7.95 16.15C9.59 16.15 11.16 15.65 12.5 14.69L17.22 19.68C17.41 19.89 17.68 20 17.96 20C18.23 20 18.49 19.9 18.68 19.71C19.09 19.31 19.1 18.64 18.71 18.22L18.71 18.22ZM7.95 2.11C11.18 2.11 13.82 4.78 13.82 8.08C13.82 11.37 11.18 14.05 7.95 14.05C4.71 14.05 2.08 11.37 2.08 8.08C2.08 4.78 4.71 2.11 7.95 2.11L7.95 2.11ZM7.95 2.11" />
				</g>
			</g>
		</g>
	</g>
</svg>