<svg xmlns="http://www.w3.org/2000/svg" viewBox="0 0 9 10" width="9" height="10">
	<style>
		tspan { white-space:pre }
		.shp0 { fill: #727272 } 
	</style>
	<g id="Header">
		<g id="Header_bannar">
			<g id="Breadcamp">
				<path id="angle_right" class="shp0" d="M8.91 4.77L4.57 0.11C4.51 0.04 4.44 0.01 4.35 0.01C4.27 0.01 4.2 0.04 4.14 0.11L3.68 0.61C3.61 0.67 3.58 0.75 3.58 0.84C3.58 0.92 3.61 1 3.68 1.07L7.33 5L3.68 8.93C3.61 9 3.58 9.07 3.58 9.16C3.58 9.25 3.61 9.32 3.68 9.39L4.14 9.89C4.2 9.96 4.27 9.99 4.35 9.99C4.44 9.99 4.51 9.96 4.57 9.89L8.91 5.23C8.97 5.16 9 5.09 9 5C9 4.91 8.97 4.84 8.91 4.77L8.91 4.77ZM8.91 4.77M5.43 5C5.43 4.91 5.39 4.84 5.33 4.77L1 0.11C0.93 0.04 0.86 0.01 0.78 0.01C0.7 0.01 0.63 0.04 0.57 0.11L0.1 0.61C0.04 0.67 0.01 0.75 0.01 0.84C0.01 0.92 0.04 1 0.1 1.07L3.76 5L0.1 8.93C0.04 9 0.01 9.07 0.01 9.16C0.01 9.25 0.04 9.32 0.1 9.39L0.57 9.89C0.63 9.96 0.7 9.99 0.78 9.99C0.86 9.99 0.93 9.96 1 9.89L5.33 5.23C5.39 5.16 5.43 5.09 5.43 5L5.43 5ZM5.43 5" />
			</g>
		</g>
	</g>
</svg>