<svg xmlns="http://www.w3.org/2000/svg" viewBox="0 0 10 8" width="10" height="8">
	<style>
		tspan { white-space:pre }
		.shp0 { fill: #fe3e57 } 
	</style>
	<g id="Blog_section">
		<g id="Blog_2">
			<g id="Read more btn">
				<path id="arrow" class="shp0" d="M9.84 3.62L6.23 0.15C6.12 0.05 5.99 0 5.84 0C5.69 0 5.56 0.05 5.45 0.15L5.13 0.47C5.02 0.57 4.97 0.7 4.97 0.84C4.97 0.98 5.02 1.12 5.13 1.22L7.23 3.25L0.54 3.25C0.24 3.25 0 3.47 0 3.76L0 4.21C0 4.5 0.24 4.75 0.54 4.75L7.26 4.75L5.13 6.79C5.02 6.89 4.97 7.02 4.97 7.16C4.97 7.3 5.02 7.43 5.13 7.53L5.45 7.85C5.56 7.94 5.69 8 5.84 8C5.99 8 6.12 7.94 6.23 7.84L9.84 4.37C9.94 4.27 10 4.14 10 4C10 3.86 9.94 3.72 9.84 3.62" />
			</g>
		</g>
	</g>
</svg>