<svg xmlns="http://www.w3.org/2000/svg" viewBox="0 0 22 20" width="22" height="20">
	<style>
		tspan { white-space:pre }
		.shp0 { fill: #29282d } 
	</style>
	<g id="Header">
		<g id="Menu_bar">
			<g id="menu_icon">
				<g id="Cart">
					<g id="Icon">
						<path id="cart_icon" class="shp0" d="M17.44 20C15.92 20 14.69 18.78 14.69 17.27C14.69 15.77 15.92 14.55 17.44 14.55C18.95 14.55 20.18 15.77 20.18 17.27C20.18 18.78 18.95 20 17.44 20ZM17.44 16.18C16.83 16.18 16.34 16.67 16.34 17.27C16.34 17.87 16.83 18.36 17.44 18.36C18.04 18.36 18.53 17.87 18.53 17.27C18.53 16.67 18.04 16.18 17.44 16.18ZM19.19 13.38L6.38 13.38C6 13.38 5.67 13.12 5.58 12.75L2.9 1.63L0.84 1.63C0.38 1.63 0.01 1.27 0.01 0.82C0.01 0.37 0.38 0 0.84 0L3.55 0C3.93 0 4.26 0.26 4.35 0.63L5.09 3.7L21.19 3.7C21.45 3.7 21.69 3.82 21.84 4.02C22 4.22 22.05 4.47 21.99 4.72L19.99 12.76C19.9 13.12 19.57 13.38 19.19 13.38ZM7.03 11.74L18.55 11.74L20.14 5.34L5.49 5.34L7.03 11.74ZM7.48 20C5.96 20 4.73 18.78 4.73 17.27C4.73 15.77 5.96 14.55 7.48 14.55C8.99 14.55 10.22 15.77 10.22 17.27C10.22 18.78 8.99 20 7.48 20ZM7.48 16.18C6.87 16.18 6.38 16.67 6.38 17.27C6.38 17.87 6.87 18.36 7.48 18.36C8.08 18.36 8.57 17.87 8.57 17.27C8.57 16.67 8.08 16.18 7.48 16.18Z" />
					</g>
				</g>
			</g>
		</g>
	</g>
</svg>