<svg xmlns="http://www.w3.org/2000/svg" viewBox="0 0 20 21" width="20" height="21">
	<style>
		tspan { white-space:pre }
		.shp0 { fill: #fe3e57 } 
	</style>
	<g id="Sidebar">
		<g id="Size filter">
			<g id="X-small">
				<path id="checkmark" class="shp0" d="M17.07 3.48C15.18 1.59 12.67 0.55 10 0.55C7.33 0.55 4.82 1.59 2.93 3.48C1.04 5.37 0 7.88 0 10.55C0 13.22 1.04 15.73 2.93 17.62C4.82 19.51 7.33 20.55 10 20.55C12.67 20.55 15.18 19.51 17.07 17.62C18.96 15.73 20 13.22 20 10.55C20 7.88 18.96 5.37 17.07 3.48ZM10 19.38C5.13 19.38 1.17 15.42 1.17 10.55C1.17 5.68 5.13 1.72 10 1.72C14.87 1.72 18.83 5.68 18.83 10.55C18.83 15.42 14.87 19.38 10 19.38ZM13.95 7.34L8.77 12.52L6.05 9.79C5.82 9.56 5.45 9.56 5.22 9.79C4.99 10.02 4.99 10.39 5.22 10.62L8.36 13.76C8.47 13.87 8.62 13.93 8.77 13.93C8.92 13.93 9.07 13.87 9.19 13.76L14.78 8.17C15.01 7.94 15.01 7.57 14.78 7.34C14.55 7.11 14.18 7.11 13.95 7.34Z" />
			</g>
		</g>
	</g>
</svg>