<svg xmlns="http://www.w3.org/2000/svg" viewBox="0 0 15 15" width="15" height="15">
				<path fill-rule="evenodd" fill="rgb(254, 62, 87" d="M0 3.75L3.75 3.75L3.75 0L0 0L0 3.75ZM5.62 15L9.37 15L9.37 11.25L5.62 11.25L5.62 15ZM0 15L3.75 15L3.75 11.25L0 11.25L0 15ZM0 9.37L3.75 9.37L3.75 5.62L0 5.62L0 9.37ZM5.62 9.37L9.37 9.37L9.37 5.62L5.62 5.62L5.62 9.37ZM11.25 0L11.25 3.75L15 3.75L15 0L11.25 0ZM5.62 3.75L9.37 3.75L9.37 0L5.62 0L5.62 3.75ZM11.25 9.37L15 9.37L15 5.62L11.25 5.62L11.25 9.37ZM11.25 15L15 15L15 11.25L11.25 11.25L11.25 15Z" />
</svg>