<svg xmlns="http://www.w3.org/2000/svg" viewBox="0 0 20 20" width="20" height="20">
	<style>
		tspan { white-space:pre }
		.shp0 { fill: #29282d } 
	</style>
	<g id="Header">
		<g id="Menu_bar">
			<g id="menu_icon">
				<g id="Heart">
					<g id="Icon">
						<path id="heart_icon" class="shp0" d="M19.78 4.59C19.1 2.17 17.1 0.73 15.61 0.22C13.9 -0.38 11.86 0.22 10.03 1.83C8.2 0.26 6.15 -0.29 4.45 0.26C2.96 0.81 0.96 2.25 0.28 4.63C-0.19 6.2 -0.23 8.75 2.23 11.85C3.34 13.25 5.05 15.24 6.45 16.81C9.13 19.83 9.56 19.99 9.94 19.99C9.98 19.99 9.98 19.99 10.03 19.99L10.07 19.99L10.11 19.99C10.5 19.99 10.88 19.83 13.56 16.77C14.97 15.16 16.67 13.16 17.78 11.8C20.25 8.71 20.25 6.16 19.78 4.59ZM16.5 10.78C14.54 13.25 11.18 17.11 10.03 18.17C8.88 17.11 5.51 13.25 3.55 10.78C1.94 8.79 1.34 6.84 1.85 5.1C2.36 3.32 3.85 2.25 4.96 1.87C6.19 1.41 7.86 2.04 9.39 3.53C9.69 3.82 10.11 3.87 10.45 3.65C10.54 3.61 10.62 3.57 10.67 3.48C12.2 2.04 13.86 1.41 15.09 1.83C16.2 2.25 17.69 3.32 18.2 5.1C18.71 6.8 18.12 8.79 16.5 10.78Z" />
					</g>
				</g>
			</g>
		</g>
	</g>
</svg>