<svg xmlns="http://www.w3.org/2000/svg" viewBox="0 0 16 16" width="16" height="16">
	<style>
		tspan { white-space:pre }
		.shp0 { fill: #727272 } 
	</style>
	<g id="Header">
		<g id="Header_bannar">
			<g id="Breadcamp">
				<path id="home_icon" class="shp0" d="M8 0L0.23 6.86C-0.04 7.09 -0.07 7.51 0.16 7.78L0.16 7.78C0.4 8.05 0.8 8.08 1.07 7.85L1.36 7.59L1.36 14.03C1.36 15.12 2.23 16 3.29 16L6.9 16L6.9 10.73C6.9 10.09 7.41 9.58 8.03 9.58L8.03 9.58C8.65 9.58 9.16 10.09 9.16 10.73L9.16 16L12.7 16C13.77 16 14.64 15.12 14.64 14.03L14.64 7.59L14.92 7.85C15.19 8.08 15.6 8.05 15.83 7.78L15.83 7.78C16.07 7.51 16.04 7.09 15.77 6.86L8 0ZM13.35 14.03C13.35 14.4 13.06 14.69 12.7 14.69L10.45 14.69L10.45 10.73C10.45 9.37 9.37 8.27 8.03 8.27L8.03 8.27C6.7 8.27 5.61 9.37 5.61 10.73L5.61 14.69L3.29 14.69C2.94 14.69 2.65 14.4 2.65 14.03L2.65 6.46L8 1.73L13.35 6.46L13.35 14.03Z" />
			</g>
		</g>
	</g>
</svg>