<svg xmlns="http://www.w3.org/2000/svg" viewBox="0 0 60 60" width="60" height="60">
	<style>
		tspan { white-space:pre }
		.shp0 { fill: #ffb534 } 
		.shp1 { fill: #ffffff } 
	</style>
	<g id="Features">
		<g id="Free SHipping">
			<g id="Icon">
				<path id="Icon_bg" class="shp0" d="M0 0L60 0L60 60L0 60L0 0Z" />
				<path id="icon" class="shp1" d="M47.2 28.6L46.16 24.5C46.45 24.44 46.66 24.2 46.66 23.9L46.66 23.24C46.66 21.81 45.48 20.64 44.03 20.64L39.31 20.64L39.31 19.28C39.31 18.57 38.73 18 38.02 18L13.96 18C13.25 18 12.67 18.57 12.67 19.28L12.67 30.5C12.67 30.84 12.95 31.12 13.3 31.12C13.64 31.12 13.92 30.84 13.92 30.5L13.92 19.28C13.92 19.25 13.94 19.24 13.96 19.24L38.02 19.24C38.04 19.24 38.06 19.25 38.06 19.28L38.06 30.5C38.06 30.84 38.34 31.12 38.68 31.12C39.03 31.12 39.31 30.84 39.31 30.5L39.31 29.8L46.7 29.8C46.7 29.8 46.7 29.8 46.7 29.8C46.7 29.8 46.7 29.8 46.7 29.8C47.61 29.8 48.38 30.39 48.65 31.2L46.7 31.2C46.35 31.2 46.07 31.48 46.07 31.82L46.07 33.14C46.07 34.21 46.95 35.08 48.04 35.08L48.75 35.08L48.75 37.8L47.11 37.8C46.57 36.27 45.09 35.16 43.36 35.16C41.63 35.16 40.15 36.27 39.61 37.8L39.31 37.8L39.31 33.14C39.31 32.8 39.03 32.52 38.68 32.52C38.34 32.52 38.06 32.8 38.06 33.14L38.06 37.8L25.06 37.8C24.52 36.27 23.05 35.16 21.31 35.16C19.58 35.16 18.1 36.27 17.56 37.8L13.96 37.8C13.94 37.8 13.92 37.78 13.92 37.76L13.92 36.4L16.64 36.4C16.98 36.4 17.26 36.12 17.26 35.78C17.26 35.44 16.98 35.16 16.64 35.16L10.62 35.16C10.28 35.16 10 35.44 10 35.78C10 36.12 10.28 36.4 10.62 36.4L12.67 36.4L12.67 37.76C12.67 38.47 13.25 39.04 13.96 39.04L17.35 39.04C17.35 39.05 17.35 39.07 17.35 39.08C17.35 41.24 19.13 43 21.31 43C23.5 43 25.28 41.24 25.28 39.08C25.28 39.07 25.28 39.05 25.28 39.04L39.39 39.04C39.39 39.05 39.39 39.07 39.39 39.08C39.39 41.24 41.17 43 43.36 43C45.55 43 47.33 41.24 47.33 39.08C47.33 39.07 47.33 39.05 47.33 39.04L49.37 39.04C49.72 39.04 50 38.76 50 38.42L50 31.82C50 30.19 48.78 28.84 47.2 28.6ZM39.31 24.52L44.88 24.52L45.9 28.56L39.31 28.56L39.31 24.52ZM44.03 21.88C44.79 21.88 45.41 22.49 45.41 23.24L45.41 23.28L39.31 23.28L39.31 21.88L44.03 21.88ZM21.31 41.76C19.82 41.76 18.6 40.56 18.6 39.08C18.6 37.6 19.82 36.4 21.31 36.4C22.81 36.4 24.03 37.6 24.03 39.08C24.03 40.56 22.81 41.76 21.31 41.76ZM43.36 41.76C41.86 41.76 40.65 40.56 40.65 39.08C40.65 37.6 41.86 36.4 43.36 36.4C44.86 36.4 46.07 37.6 46.07 39.08C46.07 40.56 44.86 41.76 43.36 41.76ZM48.04 33.84C47.65 33.84 47.33 33.53 47.33 33.14L47.33 32.44L48.75 32.44L48.75 33.84L48.04 33.84ZM21.31 37.8C20.6 37.8 20.02 38.38 20.02 39.08C20.02 39.79 20.6 40.36 21.31 40.36C22.03 40.36 22.61 39.79 22.61 39.08C22.61 38.38 22.03 37.8 21.31 37.8ZM43.36 37.8C42.65 37.8 42.07 38.38 42.07 39.08C42.07 39.79 42.65 40.36 43.36 40.36C44.07 40.36 44.65 39.79 44.65 39.08C44.65 38.38 44.07 37.8 43.36 37.8ZM26.03 35.78C26.03 36.12 26.31 36.4 26.66 36.4L36.01 36.4C36.36 36.4 36.64 36.12 36.64 35.78C36.64 35.44 36.36 35.16 36.01 35.16L26.66 35.16C26.31 35.16 26.03 35.44 26.03 35.78ZM11.96 33.76L19.98 33.76C20.32 33.76 20.6 33.48 20.6 33.14C20.6 32.8 20.32 32.52 19.98 32.52L11.96 32.52C11.61 32.52 11.33 32.8 11.33 33.14C11.33 33.48 11.61 33.76 11.96 33.76ZM30.89 24.12L25.32 29.62L22.42 26.76C22.18 26.52 21.78 26.52 21.54 26.76C21.29 27 21.29 27.39 21.54 27.64L24.88 30.94C25 31.06 25.16 31.12 25.32 31.12C25.48 31.12 25.64 31.06 25.76 30.94L31.78 25C32.02 24.75 32.02 24.36 31.78 24.12C31.53 23.88 31.14 23.88 30.89 24.12Z" />
			</g>
		</g>
	</g>
</svg>