<svg xmlns="http://www.w3.org/2000/svg" viewBox="0 0 60 59" width="60" height="59">
	<style>
		tspan { white-space:pre }
		.shp0 { fill: #fe3e57 } 
		.shp1 { fill: #ffffff } 
	</style>
	<g id="Features">
		<g id="Support">
			<g id="Icon">
				<path id="Icon_bg" class="shp0" d="M0 0L60 0L60 60L0 60L0 0Z" />
				<path id="Icon" class="shp1" d="M42.38 29.68C41.99 29.33 41.47 29.11 40.93 29.08C40.33 29.05 39.76 29.26 39.33 29.68L36.44 32.47C36.39 32.37 36.32 32.28 36.25 32.2C35.89 31.78 35.37 31.56 34.78 31.56L30.74 31.56C29.97 31.56 29.23 31.46 28.53 31.27C26.69 30.77 24.93 31.14 23.45 32.32C22.84 32.8 22.4 33.32 22.13 33.71L21.4 33.02C21.31 32.93 21.18 32.88 21.04 32.88C21.04 32.88 21.04 32.88 21.04 32.88C20.9 32.88 20.77 32.93 20.67 33.03L17.15 36.6C17.05 36.7 17 36.83 17 36.96C17.01 37.09 17.06 37.22 17.16 37.31L23.13 42.86C23.23 42.95 23.35 43 23.48 43C23.61 43 23.75 42.95 23.85 42.85L27.34 39.35C27.43 39.25 27.49 39.12 27.49 38.99C27.48 38.85 27.43 38.73 27.33 38.64L27.03 38.35L27.72 38.27C28.14 38.22 28.57 38.2 29 38.2L35.15 38.2C36.15 38.2 37 37.98 37.68 37.56C37.68 37.56 37.69 37.56 37.69 37.55C37.94 37.39 38.16 37.19 38.35 36.97L42.49 32.21C43.2 31.39 43.16 30.38 42.38 29.68L42.38 29.68ZM23.47 41.8L18.24 36.94L21.05 34.08L26.25 39.01L23.47 41.8ZM41.72 31.56L37.57 36.33C37.44 36.48 37.28 36.61 37.12 36.73C36.61 37.04 35.95 37.2 35.15 37.2L28.99 37.2C28.53 37.2 28.06 37.23 27.61 37.28L26.07 37.45L22.87 34.41C23.09 34.09 23.5 33.57 24.09 33.09C25.33 32.11 26.73 31.82 28.25 32.23C29.05 32.45 29.88 32.56 30.74 32.56L34.78 32.56C35.51 32.56 35.7 33.17 35.7 33.53C35.7 33.8 35.62 34.05 35.47 34.23C35.3 34.42 35.07 34.51 34.77 34.51L31.25 34.51C30.96 34.51 30.73 34.74 30.73 35.01C30.73 35.29 30.96 35.51 31.25 35.51L34.77 35.51C35.36 35.51 35.89 35.28 36.24 34.87C36.54 34.53 36.71 34.08 36.73 33.6L40.06 30.38C40.53 29.92 41.27 30.04 41.69 30.41C41.91 30.6 42.19 31.01 41.72 31.56L41.72 31.56ZM41.72 31.56M29.65 34.88C29.59 34.61 29.31 34.44 29.04 34.51C28.76 34.57 28.59 34.84 28.66 35.11L28.66 35.13C28.72 35.36 28.93 35.51 29.16 35.51C29.2 35.51 29.24 35.51 29.27 35.5C29.55 35.44 29.72 35.17 29.66 34.9L29.65 34.88ZM29.65 34.88M20.46 28.53L25.44 28.53C25.71 28.53 25.96 28.45 26.17 28.3C26.37 28.45 26.62 28.53 26.9 28.53L31.88 28.53C32.15 28.53 32.4 28.45 32.61 28.3C32.81 28.45 33.06 28.53 33.33 28.53L38.31 28.53C39 28.53 39.55 27.99 39.55 27.32L39.55 25.06C39.55 24.04 38.97 23.15 38.09 22.71C38.52 22.22 38.77 21.58 38.77 20.88C38.77 19.29 37.45 18 35.82 18C34.2 18 32.87 19.29 32.87 20.88C32.87 21.58 33.13 22.22 33.55 22.71C33.17 22.9 32.85 23.18 32.61 23.51C32.36 23.18 32.04 22.9 31.66 22.71C32.08 22.22 32.34 21.58 32.34 20.88C32.34 19.29 31.01 18 29.39 18C27.76 18 26.44 19.29 26.44 20.88C26.44 21.58 26.69 22.22 27.12 22.71C26.74 22.9 26.41 23.18 26.17 23.51C25.92 23.18 25.6 22.9 25.22 22.71C25.65 22.22 25.9 21.58 25.9 20.88C25.9 19.29 24.58 18 22.95 18C21.32 18 20 19.29 20 20.88C20 21.58 20.26 22.22 20.68 22.71C19.81 23.15 19.22 24.04 19.22 25.06L19.22 27.32C19.22 27.99 19.78 28.53 20.46 28.53L20.46 28.53ZM35.82 19C36.89 19 37.75 19.84 37.75 20.88C37.75 21.92 36.89 22.76 35.82 22.76C34.76 22.76 33.9 21.92 33.9 20.88C33.9 19.84 34.76 19 35.82 19L35.82 19ZM34.49 23.45C34.89 23.65 35.35 23.76 35.82 23.76C36.3 23.76 36.75 23.65 37.15 23.45C37.95 23.58 38.53 24.25 38.53 25.06L38.53 27.32C38.53 27.44 38.43 27.53 38.31 27.53L33.33 27.53C33.21 27.53 33.12 27.44 33.12 27.32L33.12 25.06C33.12 24.25 33.7 23.58 34.49 23.45L34.49 23.45ZM29.39 19C30.45 19 31.31 19.84 31.31 20.88C31.31 21.92 30.45 22.76 29.39 22.76C28.32 22.76 27.46 21.92 27.46 20.88C27.46 19.84 28.32 19 29.39 19L29.39 19ZM28.06 23.45C28.46 23.65 28.91 23.76 29.39 23.76C29.86 23.76 30.32 23.65 30.72 23.45C31.51 23.58 32.09 24.25 32.09 25.06L32.09 27.32C32.09 27.44 32 27.53 31.88 27.53L26.9 27.53C26.78 27.53 26.68 27.44 26.68 27.32L26.68 25.06C26.68 24.25 27.26 23.58 28.06 23.45L28.06 23.45ZM22.95 19C24.01 19 24.88 19.84 24.88 20.88C24.88 21.92 24.01 22.76 22.95 22.76C21.89 22.76 21.02 21.92 21.02 20.88C21.02 19.84 21.89 19 22.95 19L22.95 19ZM20.24 25.06C20.24 24.25 20.83 23.58 21.62 23.45C22.02 23.65 22.47 23.76 22.95 23.76C23.43 23.76 23.88 23.65 24.28 23.45C25.07 23.58 25.66 24.25 25.66 25.06L25.66 27.32C25.66 27.44 25.56 27.53 25.44 27.53L20.46 27.53C20.34 27.53 20.24 27.44 20.24 27.32L20.24 25.06ZM20.24 25.06" />
			</g>
		</g>
	</g>
</svg>