<svg xmlns="http://www.w3.org/2000/svg" viewBox="0 0 60 60" width="60" height="60">
	<style>
		tspan { white-space:pre }
		.shp0 { fill: #34c3ff } 
		.shp1 { fill: #ffffff } 
	</style>
	<g id="Features">
		<g id="30 days return">
			<g id="Icon">
				<path id="Icon_bg" class="shp0" d="M0 0L60 0L60 60L0 60L0 0Z" />
				<path id="Icon" class="shp1" d="M42 20.44L40.55 20.33L40.43 22.02C38.1 19.47 34.83 18 31.36 18C24.54 18 19 23.61 19 30.5C19 37.39 24.54 43 31.36 43C35.48 43 39.32 40.93 41.62 37.45L40.42 36.63C38.38 39.7 34.99 41.53 31.36 41.53C25.35 41.53 20.45 36.58 20.45 30.5C20.45 24.42 25.35 19.47 31.36 19.47C34.45 19.47 37.36 20.79 39.42 23.08L37.56 22.94L37.46 24.41L41.69 24.72L42 20.44ZM23.07 30.78C23.21 30.85 23.62 31.02 24.01 31.02C24.37 31.02 24.62 30.91 24.62 30.65C24.62 30.39 24.32 30.24 24 30.24L23.54 30.24L23.54 29.51L23.98 29.51C24.22 29.51 24.53 29.43 24.53 29.2C24.53 29.03 24.36 28.91 24.03 28.91C23.68 28.91 23.31 29.06 23.17 29.14L22.95 28.4C23.2 28.24 23.7 28.1 24.26 28.1C25.08 28.1 25.59 28.49 25.59 29.03C25.59 29.41 25.37 29.71 24.89 29.87L24.89 29.88C25.33 29.93 25.71 30.26 25.71 30.72C25.71 31.42 25.05 31.83 24.1 31.83C23.55 31.83 23.09 31.7 22.85 31.55L23.07 30.78ZM27.68 31.83C26.62 31.83 26.19 30.95 26.19 29.97C26.19 28.99 26.62 28.1 27.69 28.1C28.76 28.1 29.19 28.99 29.19 29.97C29.19 30.95 28.76 31.83 27.69 31.83L27.68 31.83ZM27.7 31.08C27.97 31.08 28.16 30.73 28.16 29.97C28.16 29.2 27.97 28.86 27.69 28.86C27.41 28.86 27.22 29.2 27.22 29.97C27.22 30.73 27.41 31.08 27.69 31.08L27.7 31.08ZM30.88 28.08C31.23 28.03 31.7 28 32.18 28C32.95 28 33.43 28.12 33.84 28.38C34.27 28.65 34.57 29.11 34.57 29.79C34.57 30.57 34.25 31.04 33.89 31.31C33.44 31.66 32.75 31.81 31.97 31.81C31.43 31.81 31.08 31.78 30.88 31.75L30.88 28.08ZM31.91 31C31.97 31.01 32.08 31.01 32.15 31.01C32.91 31.02 33.46 30.66 33.46 29.85C33.46 29.1 32.94 28.79 32.27 28.79C32.08 28.79 31.97 28.81 31.91 28.82L31.91 31ZM37.64 31.09C37.64 31.38 37.65 31.65 37.68 31.77L36.75 31.77L36.7 31.54L36.67 31.54C36.48 31.76 36.19 31.83 35.88 31.83C35.29 31.83 34.94 31.42 34.94 30.98C34.94 30.24 35.59 29.91 36.61 29.91L36.61 29.89C36.61 29.79 36.54 29.67 36.14 29.67C35.84 29.67 35.5 29.78 35.32 29.88L35.14 29.23C35.31 29.14 35.71 28.97 36.32 28.97C37.24 28.97 37.64 29.45 37.64 30.18L37.64 31.09ZM36.64 30.54C36.19 30.54 35.97 30.65 35.97 30.88C35.97 31.03 36.07 31.12 36.26 31.12C36.42 31.12 36.59 31 36.63 30.84C36.64 30.79 36.64 30.74 36.64 30.69L36.64 30.54ZM39.08 29.04L39.44 30.22C39.48 30.38 39.54 30.6 39.58 30.73L39.6 30.73C39.64 30.59 39.68 30.37 39.71 30.22L39.98 29.04L41.11 29.04L40.54 30.6C40.04 31.98 39.75 32.37 39.45 32.62C39.12 32.89 38.77 32.98 38.48 33L38.29 32.12C38.38 32.12 38.5 32.09 38.62 32.05C38.76 32 38.91 31.88 38.97 31.8C39.01 31.76 39.03 31.71 39.03 31.67C39.03 31.64 39.02 31.6 38.99 31.51L37.93 29.04L39.08 29.04Z" />
			</g>
		</g>
	</g>
</svg>