<svg xmlns="http://www.w3.org/2000/svg" viewBox="0 0 14 20" width="14" height="20">
	<style>
		tspan { white-space:pre }
		.shp0 { fill: #fe3e57 } 
	</style>
	<g id="Get Info">
		<g id="location">
			<path id="Location icon" class="shp0" d="M7 0C3.14 0 0 3.25 0 7.24C0 12.2 6.26 19.47 6.53 19.77C6.78 20.06 7.22 20.06 7.47 19.77C7.73 19.47 13.99 12.2 13.99 7.24C13.99 3.25 10.86 0 7 0ZM7 10.88C5.06 10.88 3.48 9.25 3.48 7.24C3.48 5.23 5.06 3.6 7 3.6C8.94 3.6 10.52 5.23 10.52 7.24C10.52 9.25 8.94 10.88 7 10.88Z" />
		</g>
	</g>
</svg>