<svg xmlns="http://www.w3.org/2000/svg" viewBox="0 0 20 20" width="20" height="20">
	<style>
		tspan { white-space:pre }
		.shp0 { fill: #fe3e57 } 
	</style>
	<g id="Get Info">
		<g id="Phone">
			<path id="phone_icon" class="shp0" d="M19.48 14.76L16.99 12.27C16.33 11.61 15.17 11.61 14.51 12.27L14.09 12.69L19.06 17.66L19.48 17.25C20.16 16.56 20.16 15.45 19.48 14.76ZM11.5 13.41L6.58 8.49C6.1 8.01 6.09 7.26 6.49 6.74L1.53 1.77C-0.6 4.26 -0.51 8.01 1.84 10.37L9.61 18.15C11.87 20.41 15.57 20.71 18.2 18.46L13.24 13.5C12.72 13.9 11.97 13.88 11.5 13.41ZM7.71 5.47C8.4 4.78 8.4 3.67 7.71 2.98L5.23 0.5C4.57 -0.17 3.41 -0.17 2.74 0.5L2.33 0.91L7.3 5.89L7.71 5.47Z" />
		</g>
	</g>
</svg>