<svg xmlns="http://www.w3.org/2000/svg" viewBox="0 0 130 130" width="130" height="130">
	<style>
		tspan { white-space:pre }
		.shp0 { opacity: 0.2;fill: #fe3e57 } 
		.shp1 { opacity: 0.6;fill: #fe3e57 } 
		.shp2 { fill: #fe3e57 } 
		.shp3 { fill: #ffffff } 
	</style>
	<g id="About shop">
		<g id="play btn">
			<path id="Ellipse 7 copy 2" class="shp0" d="M65 0C100.9 0 130 29.1 130 65C130 100.9 100.9 130 65 130C29.1 130 0 100.9 0 65C0 29.1 29.1 0 65 0Z" />
			<path id="Ellipse 7 copy" class="shp1" d="M65 10C95.38 10 120 34.62 120 65C120 95.38 95.38 120 65 120C34.62 120 10 95.38 10 65C10 34.62 34.62 10 65 10Z" />
			<path id="Ellipse 7" class="shp2" d="M65 20C89.85 20 110 40.15 110 65C110 89.85 89.85 110 65 110C40.15 110 20 89.85 20 65C20 40.15 40.15 20 65 20Z" />
			<path id="Shape 23" class="shp3" d="M71.82 63.14L59.99 55.54C59.45 55.18 58.9 55 58.44 55C57.55 55 57.01 55.67 57.01 56.78L57.01 73.22C57.01 74.33 57.55 75 58.44 75C58.89 75 59.43 74.81 59.98 74.46L71.81 66.86C72.57 66.37 72.99 65.71 72.99 65C72.99 64.29 72.58 63.63 71.82 63.14" />
		</g>
	</g>
</svg>