<svg xmlns="http://www.w3.org/2000/svg" viewBox="0 0 20 20" width="20" height="20">
	<style>
		tspan { white-space:pre }
		.shp0 { fill: #29282d } 
	</style>
	<g id="Header">
		<g id="Menu_bar">
			<g id="menu_icon">
				<g id="Search">
					<path id="search" class="shp0" d="M19.89 18.7L14.08 12.89C15.18 11.53 15.85 9.8 15.85 7.91C15.85 3.55 12.3 0 7.93 0C3.57 0 0.01 3.55 0.01 7.91C0.01 12.28 3.57 15.83 7.93 15.83C9.81 15.83 11.54 15.17 12.9 14.07L18.71 19.87C18.88 20.04 19.14 20.04 19.3 19.87L19.89 19.29C20.05 19.12 20.05 18.86 19.89 18.7ZM7.93 14.16C4.48 14.16 1.68 11.36 1.68 7.91C1.68 4.47 4.48 1.66 7.93 1.66C11.38 1.66 14.18 4.47 14.18 7.91C14.18 11.36 11.38 14.16 7.93 14.16Z" />
				</g>
			</g>
		</g>
	</g>
</svg>