<svg xmlns="http://www.w3.org/2000/svg" viewBox="0 0 20 20" width="20" height="20">
	<style>
		tspan { white-space:pre }
		.shp0 { fill: #8d8d8d } 
	</style>
	<g id="Blog_section">
		<g id="Blog_1">
			<g id="Time">
				<path id="Shape 16" class="shp0" d="M17.9 5.26C17.48 5.46 17.31 5.96 17.51 6.37C18.06 7.51 18.33 8.72 18.33 10C18.33 14.59 14.59 18.33 10 18.33C5.4 18.33 1.67 14.59 1.67 10C1.67 5.4 5.4 1.67 10 1.67C11.9 1.67 13.69 2.29 15.17 3.46C15.53 3.75 16.06 3.69 16.34 3.33C16.63 2.97 16.57 2.45 16.21 2.16C14.46 0.77 12.25 0 10 0C4.49 0 0 4.49 0 10C0 15.51 4.49 20 10 20C15.51 20 20 15.51 20 10C20 8.47 19.67 7.01 19.01 5.65C18.81 5.23 18.31 5.06 17.9 5.26L17.9 5.26ZM17.9 5.26M10 3.33C9.54 3.33 9.17 3.71 9.17 4.17L9.17 10C9.17 10.46 9.54 10.83 10 10.83L14.17 10.83C14.63 10.83 15 10.46 15 10C15 9.54 14.63 9.17 14.17 9.17L10.83 9.17L10.83 4.17C10.83 3.71 10.46 3.33 10 3.33L10 3.33ZM10 3.33" />
			</g>
		</g>
	</g>
</svg>