<svg xmlns="http://www.w3.org/2000/svg" viewBox="0 0 20 20" width="20" height="20">
					<path fill="#29282d" fill0-rule="evenodd" d="M17.07 12.93C15.98 11.84 14.69 11.03 13.27 10.54C14.79 9.5 15.78 7.75 15.78 5.78C15.78 2.59 13.19 0 10 0C6.81 0 4.22 2.59 4.22 5.78C4.22 7.75 5.21 9.5 6.73 10.54C5.31 11.03 4.02 11.84 2.93 12.93C1.04 14.82 0 17.33 0 20L1.56 20C1.56 15.35 5.35 11.56 10 11.56C14.65 11.56 18.44 15.35 18.44 20L20 20C20 17.33 18.96 14.82 17.07 12.93ZM5.78 5.78C5.78 3.45 7.67 1.56 10 1.56C12.33 1.56 14.22 3.45 14.22 5.78C14.22 8.11 12.33 10 10 10C7.67 10 5.78 8.11 5.78 5.78Z" />
</svg>