<svg xmlns="http://www.w3.org/2000/svg" viewBox="0 0 16 16" width="16" height="16">
	<style>
		tspan { white-space:pre }
		.shp0 { fill: #fe3e57 } 
	</style>
	<g id="Blog Dtails">
		<g id="Blog_Details">
			<g id="By Admin">
				<path id="User" class="shp0" d="M13.66 10.34C12.79 9.47 11.75 8.83 10.62 8.44C11.83 7.6 12.62 6.2 12.62 4.62C12.62 2.07 10.55 0 8 0C5.45 0 3.37 2.07 3.37 4.62C3.37 6.2 4.17 7.6 5.38 8.44C4.25 8.83 3.21 9.47 2.34 10.34C0.83 11.85 0 13.86 0 16L1.25 16C1.25 12.28 4.28 9.25 8 9.25C11.72 9.25 14.75 12.28 14.75 16L16 16C16 13.86 15.17 11.85 13.66 10.34ZM4.62 4.62C4.62 2.76 6.14 1.25 8 1.25C9.86 1.25 11.37 2.76 11.37 4.62C11.37 6.49 9.86 8 8 8C6.14 8 4.62 6.49 4.62 4.62Z" />
			</g>
		</g>
	</g>
</svg>